<svg width="465" height="275" viewBox="0 0 465 275" fill="none" xmlns="http://www.w3.org/2000/svg">
<path d="M444.338 250.313C444.338 250.313 446.98 266.24 446.98 266.678C446.995 267.101 454.454 266.452 454.454 266.452L452.657 246.796L444.338 250.313Z" fill="#F8C3B0"/>
<path d="M395.509 240.923C394.769 241.421 386.314 252.109 385.559 255.34L391.402 258.148L401.473 245.391L395.509 240.923Z" fill="#F8C3B0"/>
<path d="M396.458 65.5459C396.458 65.5459 381.239 69.1087 375.305 79.782C369.371 90.4552 356.144 145.814 373.433 153.332C390.721 160.851 410.123 150.57 410.123 150.57L396.458 65.5459Z" fill="#58CCA2"/>
<path d="M411.03 10.5944C411.03 10.5944 410.607 16.9954 416.571 19.6675C422.55 22.3396 428.273 40.1837 428.273 40.1837C428.273 40.1837 432.259 41.8443 436.411 30.854C440.579 19.8637 434.388 18.4749 434.282 18.1578C434.177 17.8559 437.061 8.78285 411.03 10.5944Z" fill="#50BB9B"/>
<path d="M393.877 127.683C393.877 127.683 409.263 199.966 397.727 224.573C392.745 235.201 390.933 241.527 391.416 245.286C391.582 246.524 395.146 250.826 397.939 251.113C400.883 251.415 418.67 233.405 424.317 207.469C430.93 177.125 424.634 120.769 424.634 120.769L393.877 127.683Z" fill="#307070"/>
<path d="M444.261 114.987C444.261 114.987 458.076 224.03 456.506 253.378C456.249 258.254 451.689 258.797 446.888 257.937C445.514 257.695 444.11 257.197 442.856 256.337C437.859 252.879 422.337 169.199 420.027 159.975C417.717 150.751 411.179 94.2296 444.261 114.987Z" fill="#307070"/>
<path d="M412.81 16.6177C412.81 16.6177 411.36 24.7698 409.02 28.8006C406.679 32.8314 406.423 43.7462 410.967 45.6937C415.512 47.6411 423.439 46.207 426.821 40.5005C426.821 40.5005 429.418 40.6363 430.068 37.9038C430.717 35.1714 429.811 32.4389 427.471 34.1297C427.471 34.1297 428.769 22.6865 425.387 20.4824C422.02 18.2783 414.244 18.6859 412.81 16.6177Z" fill="#F8C3B0"/>
<path d="M423.711 42.2368H416.237V55.5973H423.711V42.2368Z" fill="#F8C3B0"/>
<path d="M401.984 138.824C400.278 138.824 375.244 141.104 373.538 114.926C371.832 88.749 391.747 51.2189 409.383 50.0867C427.018 48.9545 433.843 47.8071 444.654 71.1313C455.465 94.4555 467.408 129.721 444.654 135.413C421.9 141.089 401.984 138.824 401.984 138.824Z" fill="#BBF2E2"/>
<path d="M400.098 53.7407C400.098 53.7407 404.069 85.7756 397.078 105.039C396.701 106.096 396.595 107.243 396.852 108.33L398.845 116.875C398.845 116.875 416.722 108.571 409.399 50.0873C409.384 50.0873 402.982 48.0191 400.098 53.7407Z" fill="#58CCA2"/>
<path d="M426.763 22.3696C426.763 22.3696 424.724 30.9294 425.766 35.715C425.766 35.715 427.472 33.0127 429.435 33.8279C431.413 34.6431 426.763 22.3696 426.763 22.3696Z" fill="#50BB9B"/>
<path d="M388.456 250.042C388.456 250.042 382.597 253.619 383.247 256.79C383.896 259.975 391.415 271.131 393.514 271.222C395.613 271.313 391.128 259.296 394.148 254.646C394.148 254.661 391.641 255.522 388.456 250.042Z" fill="#1F1816"/>
<path d="M446.737 265.002C446.737 265.002 452.716 268.248 454.468 263.553C454.468 263.553 455.494 267.704 464.161 272.777C464.161 272.777 466.879 274.045 462.53 274.77C458.197 275.494 446.45 272.988 445.907 271.252C445.363 269.501 446.737 265.002 446.737 265.002Z" fill="#1F1816"/>
<path d="M73.5645 66.8286C73.5645 66.8286 85.9339 129.467 73.1498 139.831L68.6167 72.4389L73.5645 66.8286Z" fill="#F8C3B0"/>
<path d="M51.8506 246.869C51.8506 246.869 51.8368 263.589 51.7815 264.018C51.7263 264.46 59.452 265.04 59.452 265.04L60.9446 244.658L51.8506 246.869Z" fill="#F8C3B0"/>
<path d="M48.0234 44.0559C48.0234 44.0559 18.0742 43.6276 10.777 56.2438C4.79268 66.5938 -9.06936 119.808 8.8421 127.036C26.7397 134.263 46.821 124.369 46.821 124.369L48.0234 44.0559Z" fill="#307070"/>
<path d="M73.5643 129.164C73.5643 129.164 70.3303 222.342 63.7517 252.051C62.6598 256.984 57.9194 256.777 53.1651 255.077C51.7969 254.594 50.4563 253.861 49.323 252.756C44.8037 248.375 43.1314 160.297 42.3436 150.486C41.542 140.675 43.3111 102.356 73.5643 129.164Z" fill="#307070"/>
<path d="M51.7832 261.917C51.7832 261.917 57.8228 265.552 59.8406 260.771C59.8406 260.771 60.7113 265.123 69.4459 270.747C69.4459 270.747 72.1962 272.185 67.6769 272.723C63.1576 273.276 51.1631 272.558 50.6932 270.747C50.1957 268.951 51.7832 261.917 51.7832 261.917Z" fill="#1F1816"/>
<path d="M28.356 246.869C28.356 246.869 28.3422 263.589 28.2869 264.018C28.2316 264.46 35.9573 265.04 35.9573 265.04L37.45 244.658L28.356 246.869Z" fill="#F8C3B0"/>
<path d="M51.2163 108.657C51.2163 108.657 46.849 222.341 40.2704 252.065C39.1786 256.998 34.4381 256.79 29.6839 255.091C28.3156 254.607 26.975 253.875 25.8417 252.769C21.3224 248.389 19.6501 160.31 18.8624 150.499C18.0469 140.674 20.9493 81.8493 51.2163 108.657Z" fill="#307070"/>
<path d="M28.3289 262.263C28.3289 262.263 33.8848 266.588 36.4692 262.083C36.4692 262.083 36.8148 266.505 44.8169 273.138C44.8169 273.138 47.3737 274.893 42.8129 274.893C38.2659 274.893 26.8621 273.287 26.5995 271.436C26.3369 269.584 28.3289 262.263 28.3289 262.263Z" fill="#1F1816"/>
<path d="M68.1189 4.88098C68.1189 4.88098 66.3776 11.2927 59.6331 11.8731C52.8887 12.4673 41.2518 27.9992 41.2518 27.9992C41.2518 27.9992 36.7877 28.2756 36.4284 16.1292C36.069 3.96896 42.5924 4.70134 42.7997 4.42497C43.007 4.16242 43.2557 -5.69011 68.1189 4.88098Z" fill="#307070"/>
<path d="M64.3326 10.1736C64.3326 10.1736 63.0058 18.6442 63.9318 23.3701C64.8578 28.096 61.4303 38.8744 56.3167 39.2475C51.2031 39.6206 43.9334 35.5442 42.5514 28.8008C42.5514 28.8008 39.9669 28.0546 40.2433 25.1665C40.5336 22.2785 42.3441 19.9155 44.0578 22.3614C44.0578 22.3614 46.6561 10.7263 50.7055 9.71754C54.7688 8.68116 62.2457 11.7212 64.3326 10.1736Z" fill="#F8C3B0"/>
<path d="M51.8923 32.7114H44.1528V46.5437H51.8923V32.7114Z" fill="#F8C3B0"/>
<path d="M69.3477 74.9406L73.563 129.164C59.2034 136.902 34.1882 135.811 34.1882 135.811C33.5248 135.811 22.8139 135.949 19.6075 131.983C10.6932 120.942 19.8148 75.217 19.8148 75.217L8.34375 73.5173C14.3833 54.8624 26.7389 41.5 37.0491 40.8367C55.306 39.6484 62.3822 38.4738 73.563 62.6284C75.0003 65.7237 76.4653 69.0263 77.8612 72.4533L69.3477 74.9406Z" fill="#FF9E36"/>
<path d="M27.4449 44.609C27.4449 44.609 36.0966 74.9542 18.1298 95.6266L18.0884 106.129C18.0884 106.129 44.6653 101.347 37.064 40.8228C37.0502 40.8366 30.6651 41.2788 27.4449 44.609Z" fill="#307070"/>
<path d="M48.7428 11.0991C48.7428 11.0991 47.8445 20.164 45.2047 24.4892C45.2047 24.4892 44.4584 21.2695 42.2471 21.4077C40.0497 21.5182 48.7428 11.0991 48.7428 11.0991Z" fill="#307070"/>
<path d="M8.35739 73.5166C8.35739 73.5166 -1.48285 113.59 18.8472 150.485C18.8472 150.485 26.5453 142.277 25.951 138.67L22.0398 130.545C22.0398 130.545 13.5401 105.796 21.1414 75.2024L8.35739 73.5166Z" fill="#F8C3B0"/>
<path d="M39.8423 40.657C39.8423 40.657 46.0615 48.4782 51.8938 46.5298C57.7261 44.5814 56.9383 41.7901 56.9383 41.7901C56.9383 41.7901 53.6076 39.4271 39.8423 40.657Z" fill="#F8C3B0"/>
<path d="M98.9639 151.505C98.9639 151.505 99.1407 160.598 104.403 160.259C109.665 159.905 106.157 146.921 106.157 146.921L98.9639 151.505Z" fill="#FFD1A1"/>
<path d="M108.397 63.3745C108.397 63.3745 94.2613 78.9078 98.2853 153.067L107.822 154.85L108.397 63.3745Z" fill="#307070"/>
<path d="M167.121 148.159C167.121 148.159 168.728 151.018 165.795 153.008C162.861 154.997 159.383 155.233 159.368 154.408C159.353 153.583 159.235 149.5 159.235 149.5L167.121 148.159Z" fill="#F8C3B0"/>
<path d="M115.825 196.984L127.027 265.469L132.024 264.806C132.024 264.806 134.338 228.803 133.233 212.989C132.142 197.176 115.825 196.984 115.825 196.984Z" fill="#F8C3B0"/>
<path d="M140.103 225.31L160.134 257.541L161.593 259.899H165.779C165.779 259.899 158.232 222.981 153.87 213.608C149.521 204.235 140.103 225.31 140.103 225.31Z" fill="#F8C3B0"/>
<path d="M121.87 18.2188C121.87 18.2188 127.147 11.9554 135.622 18.2188C144.097 24.4822 142.373 39.0134 149.138 48.0033C155.963 57.0668 167.755 64.4355 158.071 74.2802C148.387 84.1395 123.005 71.9664 120.573 58.5406C118.141 45.1294 121.87 18.2188 121.87 18.2188Z" fill="#50BB9B"/>
<path d="M114.145 27.2378C114.145 27.2378 102.515 58.7613 116.666 61.753C130.801 64.7447 140.868 51.9378 140.868 51.9378C140.868 51.9378 137.758 17.5405 128.236 20.1933C118.729 22.846 114.145 27.2378 114.145 27.2378Z" fill="#50BB9B"/>
<path d="M163.582 241.831C163.39 242.774 162.359 243.422 161.209 243.363L138.569 243.791C137.36 243.732 116.474 243.26 115.427 243.216C115.427 243.216 99.2723 176.19 112.951 108.397C125.273 111.286 140.367 109.016 147.604 108.397C147.663 108.56 147.722 108.722 147.781 108.884C153.854 124.933 156.802 153.126 156.05 161.615C152.719 199.903 165.218 234.005 163.582 241.831Z" fill="#58CCA2"/>
<path d="M116.489 21.8885C116.489 21.8885 113.541 43.7884 121.279 49.3002C124.551 51.6287 126.645 50.5087 129.534 49.4034C132.85 48.1212 135.282 45.2474 136.358 41.8577L136.815 40.4135C136.815 40.4135 138.761 39.7798 139.542 37.3333C140.839 33.2511 137.405 32.8237 136.314 33.9142C136.329 33.8995 132.467 14.446 116.489 21.8885Z" fill="#F8C3B0"/>
<path d="M124.467 59.4072H131.114V42.1496H124.467V59.4072Z" fill="#F8C3B0"/>
<path d="M136.329 33.8994C136.329 33.8994 132.216 34.4152 127.042 26.3096C127.042 26.3096 111.728 32.3667 109.65 27.3413C107.586 22.3158 113.128 14.7112 124.33 17.8061C135.547 20.901 137.611 33.1183 136.329 33.8994Z" fill="#50BB9B"/>
<path d="M147.782 108.884C147.723 108.722 147.664 108.56 147.605 108.397C140.368 109.016 125.275 111.286 112.952 108.397C111.065 97.0201 106.865 66.4693 110.343 62.9028C114.588 58.5553 126.483 56.4625 127.795 56.212C129.166 55.932 147.812 58.8795 151.718 65.983C157.068 75.6655 148.799 82.5774 147.782 108.884Z" fill="#BBF2E1"/>
<path d="M140.575 58.1133C140.575 58.1133 139.838 62.1956 138.231 98.7593C136.522 137.548 135.593 171.371 147.37 178.224C150.097 179.815 157.349 177.678 157.349 177.678C157.349 177.678 158.44 69.6969 155.551 66.7199C151.143 62.2103 140.575 58.1133 140.575 58.1133Z" fill="#307070"/>
<path d="M118.538 58.1133C118.538 58.1133 121.486 154.216 115.929 176.647C114.352 183.028 102.118 176.647 102.118 176.647C102.118 176.647 102.31 68.1053 108.397 63.3598C112.937 59.8523 118.538 58.1133 118.538 58.1133Z" fill="#307070"/>
<path d="M155.549 66.7194C155.549 66.7194 163.73 90.9478 169.935 146.081C169.935 146.081 162.359 153.096 157.082 148.925C151.805 144.769 139.513 62.1361 155.549 66.7194Z" fill="#307070"/>
<path d="M122.944 57.2584C122.944 57.2584 123.106 60.147 127.794 60.4565C132.481 60.766 134.073 57.111 134.073 57.111C134.073 57.111 128.133 54.532 122.325 57.4205" fill="#F8C3B0"/>
<path d="M127.026 265.47C127.026 265.47 115.706 274.283 117.829 274.636C119.494 274.916 127.69 271.055 130.696 268.476C131.787 267.533 132.141 266.118 132.023 264.792C131.522 258.808 127.026 265.47 127.026 265.47Z" fill="#F8C3B0"/>
<path d="M160.797 258.602C160.797 258.602 165.823 271.32 167.695 270.304C169.582 269.301 166.221 257.231 165.071 256.48C163.922 255.728 160.797 258.602 160.797 258.602Z" fill="#F8C3B0"/>
<path d="M127.028 265.47C127.028 265.47 124.066 268.638 126.527 267.695C129.696 266.472 132.055 263.362 132.055 263.362C132.055 263.362 133.352 266.634 130.713 268.476C128.06 270.333 120.012 275.167 117.846 274.636C115.664 274.091 127.028 265.47 127.028 265.47Z" fill="#5C5C5C"/>
<path d="M160.797 258.602C160.797 258.602 162.919 263.362 164.143 262.552C165.366 261.741 165.086 256.494 165.086 256.494C165.086 256.494 165.926 256.318 166.678 257.379C167.444 258.44 169.847 269.257 167.71 270.318C165.573 271.379 161.003 260.385 160.797 258.602Z" fill="#5C5C5C"/>
<path d="M314.47 15.4462C314.47 15.4462 325.742 12.0619 329.407 18.5809C333.212 25.2391 326.296 41.9061 340.79 45.0183C355.432 48.1381 356.245 61.2404 354.769 66.9703C350.53 83.3777 322.82 98.5908 305.11 80.143C287.4 61.6953 311.032 51.0241 313.252 42.2978C315.626 33.4474 304.707 21.1501 314.47 15.4462Z" fill="#FFA20F"/>
<path d="M304.842 44.8265C304.984 38.2149 290.227 31.349 305.551 17.9987C305.977 17.6173 306.686 17.6173 307.112 17.8716C308.389 18.7616 312.362 19.2702 314.49 20.9231C318.321 23.9746 324.28 32.3662 322.436 36.562C318.463 45.5893 325.132 53.3452 325.699 63.5169C326.125 74.07 306.97 84.4959 297.747 81.5716C294.484 80.5544 292.498 78.3929 291.504 75.85C290.795 73.8157 290.937 71.6542 292.072 69.8742C295.619 63.8983 304.558 66.8227 304.842 44.8265Z" fill="#E28F0C"/>
<path d="M214.503 33.3568C214.365 32.9561 208.698 25.3836 209.929 20.2294C211.159 15.0613 215.775 15.4758 215.775 15.4758C215.775 15.4758 217.682 11.6757 225.421 12.0765C233.175 12.4772 239.698 17.9217 239.007 24.0294C238.33 30.1372 230.314 34.2274 230.314 34.2274L214.503 33.3568Z" fill="#307070"/>
<path d="M214.006 31.1184L215.236 32.1824C215.236 32.1824 217.309 31.0769 217.033 25.2317L219.133 28.714C219.133 28.714 228.393 33.9788 234.433 31.4086C235.013 31.1598 240.956 22.3575 236.285 18.6956C231.6 15.0338 217.019 14.1355 214.504 17.4934C211.988 20.8375 214.006 31.1184 214.006 31.1184Z" fill="#307070"/>
<path d="M207.701 247.949L210.577 261.767H215.714L214.89 244.935L207.701 247.949Z" fill="#F8C3B0"/>
<path d="M236.485 247.949L233.595 261.767H228.458L229.282 244.935L236.485 247.949Z" fill="#F8C3B0"/>
<path d="M245.739 129.146C245.544 140.842 245.251 153.236 244.818 165.477C243.534 203.16 241.035 239.477 236.931 250.545C236.694 251.187 236.079 251.619 235.395 251.661L230.398 251.94C229.421 251.996 228.597 251.242 228.569 250.265C228.304 240.188 226.88 189.79 224.842 162.922C224.116 153.432 222.972 146.886 221.213 146.132C219.342 145.337 218.128 151.841 217.36 161.959C215.364 188.366 216.397 239.435 216.648 250.21C216.676 251.34 215.797 252.289 214.68 252.359L209.389 252.694C208.315 252.764 207.365 252.024 207.184 250.963C205.662 242.128 201.53 202.77 198.418 159.517C197.72 149.817 197.161 140.047 196.826 130.556C203.541 131.24 228.723 133.459 245.739 129.146Z" fill="#58CCA2"/>
<path d="M248.532 133.599C229.576 138.4 201.532 135.93 194.049 135.148C192.416 90.2069 193.407 57.6173 207.018 54.0164C237.113 46.0609 245.196 51.7135 247.709 61.4415C248.728 65.3774 249.118 96.4457 248.532 133.599Z" fill="#307070"/>
<path d="M235.354 24.0935C235.354 24.0935 238.229 40.1572 231.026 45.2794C227.983 47.4428 226.028 46.41 223.348 45.3632C220.263 44.1768 218.002 41.4971 216.997 38.3568L216.564 37.0169C216.564 37.0169 214.749 36.4167 214.037 34.1417C212.837 30.3454 216.033 29.9407 217.039 30.9596C217.039 30.9596 217.66 18.07 235.354 24.0935Z" fill="#F8C3B0"/>
<path d="M190.851 89.5093C190.851 89.5093 184.793 129.691 183.299 135.149C181.805 140.606 182.056 148.159 183.298 151.243L189.999 140.159L199.715 91.0725L190.851 89.5093Z" fill="#F8C3B0"/>
<path d="M247.708 61.4414C247.708 61.4414 263.036 96.7108 260.844 111.226C259.993 116.809 245.307 149.719 245.307 149.719L242.278 137.898C242.278 137.898 254.199 112.887 252.845 103.438C251.491 93.9892 248.295 83.7307 248.295 83.7307L247.708 61.4414Z" fill="#F8C3B0"/>
<path d="M246.436 57.9521L255.51 82.1676C255.51 82.1676 252.369 85.7824 245.724 86.1453C239.094 86.4942 246.436 57.9521 246.436 57.9521Z" fill="#307070"/>
<path d="M204.936 54.8262C204.936 54.8262 193.448 59.7809 186.343 89.5372C186.343 89.5372 198.976 93.0963 202.535 91.4633C206.095 89.8164 204.936 54.8262 204.936 54.8262Z" fill="#307070"/>
<path d="M228.066 38.6362H221.882V51.1277H228.066V38.6362Z" fill="#F8C3B0"/>
<path d="M218.645 51.407C218.645 51.407 219.678 55.5103 223.279 55.5801C229.044 55.6918 230.468 50.2485 230.468 50.2485C230.468 50.2485 223.726 50.2485 218.645 51.407Z" fill="#F8C3B0"/>
<path d="M228.345 261.766C228.345 261.766 227.014 265.158 227.665 265.961C228.33 266.763 243.064 270.11 242.883 268.8C242.701 267.504 233.481 261.71 233.481 261.71L228.345 261.766Z" fill="#1F1816"/>
<path d="M215.712 261.766C215.712 261.766 215.74 264.809 215.712 265.786C215.684 266.763 201.959 270.153 201.47 269.176C200.982 268.199 210.575 261.752 210.575 261.752H215.712V261.766Z" fill="#1F1816"/>
<path d="M329.749 60.4902C329.749 60.4902 326.404 77.2796 335.236 118.306C344.067 159.333 329.998 154.4 328.353 153.364C326.708 152.341 298.362 71.0199 329.749 60.4902Z" fill="#F8C3B0"/>
<path d="M291.446 75.8589C291.446 75.8589 294.081 80.9413 289.991 121.525C281.783 162.612 294.859 157.671 296.388 156.633C297.917 155.609 320.618 86.404 291.446 75.8589Z" fill="#F8C3B0"/>
<path d="M304.855 223.413L309.156 261.16L314.307 261.712L316.503 224.066L304.855 223.413Z" fill="#F8C3B0"/>
<path d="M332.306 216.832L330.177 266.371H324.994L320.337 216.169L332.306 216.832Z" fill="#F8C3B0"/>
<path d="M324.317 130.771C316.757 131.559 320.17 117.187 301.057 112.337C301.001 108.786 300.836 105.621 300.601 102.775V102.761L298.984 83.7468L298.555 84.1614C297.823 84.8799 296.62 84.6589 296.15 83.7468C292.695 77.0173 288.784 77.5424 289.392 75.2071C291.935 65.396 300.863 48.3717 324.22 55.0736C337.861 58.9981 325.961 85.4465 324.317 130.771Z" fill="#307070"/>
<path d="M303.42 22.3378C303.42 22.3378 300.656 42.872 307.912 48.0401C310.98 50.2234 312.943 49.1732 315.651 48.1368C318.761 46.9346 321.041 44.24 322.05 41.0618L322.479 39.7076C322.479 39.7076 324.303 39.1134 325.036 36.8195C326.252 32.9918 323.032 32.5911 322.009 33.6137C322.023 33.5998 318.402 15.3595 303.42 22.3378Z" fill="#F8C3B0"/>
<path d="M310.905 53.9297H317.138V41.3411H310.905V53.9297Z" fill="#F8C3B0"/>
<path d="M300.602 102.789C300.602 102.789 283.271 132.871 285.192 220.978C285.192 220.978 308.465 229.462 346.223 219.333C346.223 219.333 341.276 151.208 326.488 102.775H300.602V102.789Z" fill="#58CCA2"/>
<path d="M323.972 55.1293C321.926 61.8865 306.544 111.826 291.631 131.324L290.401 137.667C290.401 137.667 312.183 111.633 328.311 56.8151C328.422 56.442 328.228 56.0413 327.869 55.8893L324.939 54.6871C324.552 54.5074 324.096 54.7147 323.972 55.1293Z" fill="#FF9E36"/>
<path d="M286.172 129.486C286.172 129.486 267.528 158.892 275.392 168.841C283.256 178.776 297.063 168.592 297.008 160.425C296.952 152.273 300.988 126.335 297.008 125.714C293.041 125.078 286.172 129.486 286.172 129.486Z" fill="#FF9E36"/>
<path d="M308.257 54.2442L310.897 51.2871L314.531 53.9402L311.394 57.4501L308.257 54.2442Z" fill="#58CCC5"/>
<path d="M317.13 51.2871L314.532 53.9402L317.13 57.4501L319.95 54.0784L317.13 51.2871Z" fill="#58CCC5"/>
<path d="M324.22 261.688C324.22 261.688 324.194 266.13 325.154 267.102C326.129 268.069 338.917 273.199 339.564 270.634L329.867 261.059L324.22 261.688Z" fill="#5C5C5C"/>
<path d="M314.879 261.531C314.879 261.531 314.465 265.963 313.391 266.821C312.303 267.673 298.774 271.307 298.369 268.675L309.19 260.249L314.879 261.531Z" fill="#5C5C5C"/>
<path d="M328.601 58.1411C328.601 58.1411 331.752 62.1485 333.106 73.1894C333.106 73.1894 333.714 77.0309 332.622 77.9015C331.517 78.7582 326.597 79.7393 326.597 79.7393L328.601 58.1411Z" fill="#307070"/>
<path d="M328.148 24.8089C322.358 14.7218 310.053 11.4146 303.9 14.8872C300.462 16.7062 295.938 24.8089 303.357 24.9743C305.167 24.9743 306.976 24.4782 308.424 23.6514C308.967 23.3207 309.51 23.3207 310.053 23.3207L314.938 24.8089C318.919 26.1318 321.091 29.9351 319.643 33.7385L319.1 35.0614C318.919 35.7228 319.643 36.3843 320.367 36.0535L320.729 35.5574C321.453 34.2346 322.719 33.4077 324.348 32.9117C327.605 31.9195 331.586 30.9273 328.148 24.8089Z" fill="#FFA20F"/>
</svg>
