<svg width="213" height="253" viewBox="0 0 213 253" fill="none" xmlns="http://www.w3.org/2000/svg">
<circle cx="61.8453" cy="52.8857" r="38.2221" transform="rotate(150 61.8453 52.8857)" fill="#20C997" fill-opacity="0.2"/>
<circle cx="137.247" cy="176.353" r="55.4554" transform="rotate(150 137.247 176.353)" fill="#20C997" fill-opacity="0.2"/>
<circle cx="152.575" cy="15.8618" r="11.1189" transform="rotate(150 152.575 15.8618)" fill="#20C997" fill-opacity="0.2"/>
<path d="M168.656 48.7066C167.904 48.1673 166.926 48.0584 166.075 48.42L161.258 50.37L20.835 107.032L3.62988 114.172L55.618 135.22H55.6754V135.248L68.9809 181.731L69.583 183.796C69.8633 184.773 70.6399 185.529 71.6245 185.783C72.6091 186.036 73.6545 185.749 74.3716 185.029L100.954 157.845L103.334 155.407L139.723 169.716L142.418 170.777C144.029 171.436 145.853 171.317 147.364 170.455C148.876 169.592 149.907 168.083 150.16 166.361L169.889 51.689C170.143 50.5347 169.651 49.3444 168.656 48.7066ZM84.494 147.522L84.5801 147.55L84.4366 147.722L84.494 147.522Z" fill="#7ADFC1"/>
<path d="M161.258 50.3694L20.835 107.032L3.62988 114.172L55.618 135.22H55.6754V135.248L68.9809 181.731L94.7311 155.407L100.954 157.844L103.334 155.407L139.723 169.716C140.712 168.85 141.362 167.661 141.558 166.361L161.286 51.6883C161.378 51.2525 161.368 50.8012 161.258 50.3694ZM75.834 147.722L75.8915 147.521L75.9775 147.55L75.834 147.722Z" fill="#D5F5EB"/>
<path d="M103.335 155.407L74.373 185.028C74.7108 184.661 74.9564 184.219 75.0898 183.738L84.4381 147.722L84.5816 147.55L97.0267 152.769L102.59 155.12L103.335 155.407Z" fill="#7ADFC1"/>
<path d="M168.869 48.8613L84.5807 147.55L84.4946 147.521L84.4372 147.722L75.0889 183.738C74.9555 184.219 74.7095 184.661 74.3722 185.029C73.6547 185.749 72.6097 186.036 71.6251 185.782C70.6405 185.529 69.8635 184.773 69.5836 183.795L55.676 135.248V135.22H55.6475V135.191L168.869 48.8613Z" fill="#D5F5EB"/>
<path d="M148.357 169.727H148.326L111.937 155.407L109.557 157.845L139.723 169.716L142.418 170.777C144.433 171.617 146.752 171.207 148.357 169.727Z" fill="white"/>
<path d="M55.6469 135.22H55.6754V135.249L68.9809 181.731L69.583 183.796C69.8633 184.774 70.6399 185.529 71.6245 185.783C72.6091 186.036 73.6545 185.75 74.3716 185.029L77.5861 181.743L64.278 135.249V135.221H64.2205L12.2325 114.173L29.4376 107.033L169.829 50.3816C169.676 49.7868 169.334 49.2582 168.854 48.8761H168.868H168.848C168.782 48.8244 168.728 48.7558 168.656 48.7098C167.904 48.1705 166.926 48.0616 166.075 48.4232L161.258 50.3732L20.835 107.033L3.62988 114.173L55.618 135.22H55.6469Z" fill="white"/>
<path d="M10.4387 113.836L44.9952 127.821L56.6917 132.556L54.5383 137.872L42.8415 133.138L8.28809 119.15L10.4387 113.836Z" fill="white"/>
<path d="M10.4391 113.836L4.70391 111.514C3.23879 110.933 1.57943 111.643 0.988343 113.104C0.397252 114.565 1.09621 116.229 2.55327 116.83L8.28843 119.15L18.9213 123.451C20.3865 124.032 22.0458 123.322 22.6369 121.861C23.228 120.4 22.529 118.736 21.072 118.134L10.4391 113.833V113.836Z" fill="#20C997"/>
<path d="M31.7044 122.442C30.9978 122.164 30.2118 122.164 29.5051 122.442L29.0232 122.709C28.8626 122.817 28.7167 122.946 28.5901 123.093C28.4526 123.212 28.3337 123.351 28.2372 123.506C28.1357 123.669 28.0463 123.84 27.9704 124.016C27.6922 124.723 27.6922 125.509 27.9704 126.216C28.6253 127.644 30.2807 128.313 31.7441 127.741C32.0872 127.585 32.3977 127.365 32.6588 127.093C32.9243 126.828 33.1356 126.513 33.2811 126.167C33.5718 125.463 33.5678 124.672 33.2704 123.972C32.973 123.271 32.4064 122.719 31.6984 122.439L31.7044 122.442Z" fill="#20C997"/>
<path d="M58.9714 136.295L128.652 84.3931C129.543 83.808 130.036 82.7777 129.932 81.7172C129.828 80.6566 129.145 79.7413 128.158 79.34C127.171 78.9388 126.043 79.1179 125.228 79.8051L55.1893 131.951L42.3399 126.746C40.8717 126.151 39.1996 126.86 38.6048 128.328C38.01 129.796 38.7181 131.468 40.1862 132.063L53.2994 137.37L66.834 184.619C67.5394 187.062 69.7817 188.741 72.3252 188.728H72.3911C73.7759 188.703 75.1029 188.169 76.1188 187.228C76.2189 187.168 76.3147 187.101 76.4054 187.027L104.123 158.685L141.286 173.421C143.674 174.435 146.398 174.283 148.658 173.008C150.987 171.716 152.584 169.416 152.98 166.782L162.359 104.053L172.683 52.2621C173.112 50.1827 172.364 48.0358 170.736 46.6735C169.132 45.3367 166.924 44.9889 164.986 45.7672L19.7581 104.385C18.2893 104.979 17.5799 106.652 18.1737 108.12C18.7675 109.589 20.44 110.299 21.9088 109.705L160.645 53.7249L91.8248 134.893C90.8009 136.102 90.9505 137.911 92.1588 138.935C93.3672 139.959 95.1768 139.809 96.2007 138.601L166.062 56.1991L156.725 103.066L147.32 165.913C147.191 166.793 146.661 167.563 145.886 167.998C145.143 168.413 144.247 168.455 143.468 168.11L104.364 152.734L85.599 144.878C84.139 144.265 82.4584 144.951 81.8455 146.412C81.783 146.608 81.7423 146.811 81.7252 147.017H81.6563L72.3397 182.993L58.9714 136.295ZM86.4307 151.45L95.9107 155.43L98.3537 156.399L80.3774 174.783L86.4307 151.45Z" fill="#20C997"/>
</svg>
