<svg width="149" height="95" viewBox="0 0 149 95" fill="none" xmlns="http://www.w3.org/2000/svg">
<path d="M120.791 7.80276C113.561 11.9772 111.084 21.2228 115.258 28.4531C119.432 35.6835 128.678 38.1607 135.908 33.9863C143.139 29.8118 145.616 20.5664 141.442 13.3361C137.267 6.10571 128.022 3.6283 120.791 7.80276Z" fill="#20C997" fill-opacity="0.2"/>
<path d="M66.2132 60.3951C63.707 46.6504 50.533 37.5399 36.7883 40.0461C23.0437 42.5524 13.9333 55.7264 16.4396 69.471C18.9458 83.2157 32.1196 92.3262 45.8643 89.82C59.6089 87.3137 68.7195 74.1398 66.2132 60.3951Z" fill="#20C997" fill-opacity="0.2"/>
<path d="M16.4707 35.7819C15.7302 31.721 11.8379 29.0293 7.77694 29.7697C3.71602 30.5102 1.02422 34.4025 1.7647 38.4635C2.50519 42.5244 6.39755 45.2161 10.4585 44.4756C14.5194 43.7351 17.2112 39.8428 16.4707 35.7819Z" fill="#20C997" fill-opacity="0.2"/>
<path d="M109.449 47.9053H62.992C60.5464 47.9053 58.5645 49.8873 58.5645 52.3238V81.089C58.5645 83.5255 60.5464 85.5075 62.992 85.5075H109.449C111.886 85.5075 113.868 83.5255 113.868 81.089V52.3238C113.868 49.8873 111.886 47.9053 109.449 47.9053Z" fill="#8FE4CB"/>
<path d="M49.7178 30.2041H105.021V36.8409H49.7178V30.2041Z" fill="#D5F5EB"/>
<path d="M98.384 58.9605C98.384 61.4061 96.4021 63.3879 93.9565 63.3879C91.52 63.3879 89.5381 61.4061 89.5381 58.9605C89.5381 56.524 91.52 54.542 93.9565 54.542C96.4021 54.542 98.384 56.524 98.384 58.9605Z" fill="#8FE4CB"/>
<path d="M107.23 58.9605C107.23 61.4061 105.248 63.3879 102.811 63.3879C100.366 63.3879 98.3838 61.4061 98.3838 58.9605C98.3838 56.524 100.366 54.542 102.811 54.542C105.248 54.542 107.23 56.524 107.23 58.9605Z" fill="#8FE4CB"/>
<path d="M109.448 46.796H106.13V25.7767C106.121 22.7311 103.648 20.249 100.593 20.249H54.1359C51.0903 20.249 48.6084 22.7311 48.6084 25.7767V54.5419C48.6084 57.5875 51.0903 60.0695 54.1359 60.0695H57.4543V81.0888C57.4634 84.1344 59.9363 86.6165 62.991 86.6165H109.448C112.494 86.6165 114.976 84.1344 114.976 81.0888V52.3236C114.976 49.278 112.494 46.796 109.448 46.796ZM50.8177 31.3132H103.912V35.7318H50.8177V31.3132ZM54.1359 22.4582H100.593C102.43 22.4582 103.912 23.9493 103.912 25.7767V29.095H50.8177V25.7767C50.8177 23.9493 52.3086 22.4582 54.1359 22.4582ZM54.1359 57.8604C52.3086 57.8604 50.8177 56.3692 50.8177 54.5419V37.95H103.912V46.796H62.991C59.9363 46.796 57.4634 49.278 57.4543 52.3236V57.8604H54.1359ZM112.767 81.0888C112.767 82.9162 111.276 84.4073 109.448 84.4073H62.991C61.1545 84.4073 59.6727 82.9162 59.6727 81.0888V52.3236C59.6727 50.4962 61.1545 49.0051 62.991 49.0051H109.448C111.276 49.0051 112.767 50.4962 112.767 52.3236V81.0888Z" fill="#20C997"/>
<path d="M102.812 53.4326C101.058 53.4417 99.4211 54.269 98.3847 55.6782C96.9665 53.7599 94.4754 52.9599 92.2025 53.7145C89.9387 54.46 88.4023 56.5783 88.4023 58.9603C88.4023 61.3513 89.9387 63.4697 92.2025 64.2152C94.4754 64.9606 96.9665 64.1696 98.3847 62.2513C99.9394 64.3332 102.73 65.0606 105.103 63.9788C107.467 62.906 108.767 60.3239 108.213 57.7783C107.658 55.2418 105.412 53.4326 102.812 53.4326ZM93.9572 62.2786C92.1298 62.2786 90.6388 60.7967 90.6388 58.9603C90.6388 57.1329 92.1298 55.6418 93.9572 55.6418C95.7937 55.6418 97.2756 57.1329 97.2756 58.9603C97.2756 60.7967 95.7937 62.2786 93.9572 62.2786ZM102.812 62.2786C100.976 62.2786 99.4938 60.7967 99.4938 58.9603C99.4938 57.1329 100.976 55.6418 102.812 55.6418C104.64 55.6418 106.131 57.1329 106.131 58.9603C106.131 60.7967 104.64 62.2786 102.812 62.2786Z" fill="#20C997"/>
<path d="M64.0918 77.7703C64.0918 77.1611 64.5918 76.6611 65.2009 76.6611H85.1112C85.7203 76.6611 86.2203 77.1611 86.2203 77.7703C86.2203 78.3794 85.7203 78.8703 85.1112 78.8703H65.2009C64.5918 78.8703 64.0918 78.3794 64.0918 77.7703Z" fill="#20C997"/>
<path d="M64.0918 81.0886C64.0918 80.4704 64.5918 79.9795 65.2009 79.9795H76.2652C76.8744 79.9795 77.3653 80.4704 77.3653 81.0886C77.3653 81.6977 76.8744 82.1886 76.2652 82.1886H65.2009C64.5918 82.1886 64.0918 81.6977 64.0918 81.0886Z" fill="#20C997"/>
<path d="M64.0918 73.343C64.0918 72.7339 64.5918 72.2339 65.2009 72.2339H69.6284C70.2376 72.2339 70.7285 72.7339 70.7285 73.343C70.7285 73.9521 70.2376 74.4524 69.6284 74.4524H65.2009C64.5918 74.4524 64.0918 73.9521 64.0918 73.343Z" fill="#20C997"/>
<path d="M75.1562 73.343C75.1562 72.7339 75.6473 72.2339 76.2655 72.2339H80.6839C81.293 72.2339 81.793 72.7339 81.793 73.343C81.793 73.9521 81.293 74.4524 80.6839 74.4524H76.2655C75.6473 74.4524 75.1562 73.9521 75.1562 73.343Z" fill="#20C997"/>
<path d="M86.2197 73.343C86.2197 72.7339 86.7106 72.2339 87.3198 72.2339H91.7473C92.3564 72.2339 92.8565 72.7339 92.8565 73.343C92.8565 73.9521 92.3564 74.4524 91.7473 74.4524H87.3198C86.7106 74.4524 86.2197 73.9521 86.2197 73.343Z" fill="#20C997"/>
<path d="M97.2754 73.343C97.2754 72.7339 97.7754 72.2339 98.3845 72.2339H102.812C103.421 72.2339 103.912 72.7339 103.912 73.343C103.912 73.9521 103.421 74.4524 102.812 74.4524H98.3845C97.7754 74.4524 97.2754 73.9521 97.2754 73.343Z" fill="#20C997"/>
<path d="M79.583 43.4778C79.583 42.8687 80.074 42.3687 80.6831 42.3687H98.3841C98.9933 42.3687 99.4933 42.8687 99.4933 43.4778C99.4933 44.0869 98.9933 44.5869 98.3841 44.5869H80.6831C80.074 44.5869 79.583 44.0869 79.583 43.4778Z" fill="#20C997"/>
<path d="M53.0361 43.4778C53.0361 42.8687 53.527 42.3687 54.1362 42.3687H56.3545C56.9637 42.3687 57.4546 42.8687 57.4546 43.4778C57.4546 44.0869 56.9637 44.5869 56.3545 44.5869H54.1362C53.527 44.5869 53.0361 44.0869 53.0361 43.4778Z" fill="#20C997"/>
<path d="M59.6729 43.4778C59.6729 42.8687 60.1638 42.3687 60.7729 42.3687H62.9911C63.6003 42.3687 64.0913 42.8687 64.0913 43.4778C64.0913 44.0869 63.6003 44.5869 62.9911 44.5869H60.7729C60.1638 44.5869 59.6729 44.0869 59.6729 43.4778Z" fill="#20C997"/>
<path d="M66.3096 43.4778C66.3096 42.8687 66.8006 42.3687 67.4097 42.3687H69.628C70.2371 42.3687 70.728 42.8687 70.728 43.4778C70.728 44.0869 70.2371 44.5869 69.628 44.5869H67.4097C66.8006 44.5869 66.3096 44.0869 66.3096 43.4778Z" fill="#20C997"/>
<path d="M72.9463 43.4778C72.9463 42.8687 73.4372 42.3687 74.0463 42.3687H76.2647C76.8738 42.3687 77.3647 42.8687 77.3647 43.4778C77.3647 44.0869 76.8738 44.5869 76.2647 44.5869H74.0463C73.4372 44.5869 72.9463 44.0869 72.9463 43.4778Z" fill="#20C997"/>
<path d="M88.4287 77.7703C88.4287 77.1611 88.9287 76.6611 89.5378 76.6611C90.147 76.6611 90.6379 77.1611 90.6379 77.7703C90.6379 78.3794 90.147 78.8703 89.5378 78.8703C88.9287 78.8703 88.4287 78.3794 88.4287 77.7703Z" fill="#20C997"/>
<path d="M79.583 81.0886C79.583 80.4704 80.074 79.9795 80.6831 79.9795C81.3014 79.9795 81.7923 80.4704 81.7923 81.0886C81.7923 81.6977 81.3014 82.1886 80.6831 82.1886C80.074 82.1886 79.583 81.6977 79.583 81.0886Z" fill="#20C997"/>
</svg>
