<svg width="59" height="59" viewBox="0 0 59 59" fill="none" xmlns="http://www.w3.org/2000/svg">
<path d="M56.6436 45.8665C56.6446 47.9465 55.8186 49.9362 54.3496 51.4062C52.8796 52.8763 50.8866 53.7063 48.8076 53.6963C48.3146 53.6963 47.8236 53.6564 47.3386 53.5664C43.6446 52.8564 40.9727 49.6265 40.9727 45.8665C40.9727 42.1065 43.6446 38.8763 47.3386 38.1663C47.8236 38.0763 48.3146 38.0264 48.8076 38.0264C50.8866 38.0264 52.8796 38.8564 54.3496 40.3264C55.8186 41.7964 56.6446 43.7865 56.6436 45.8665Z" fill="#7ADFC1"/>
<path d="M47.3386 53.5667C50.8546 53.5667 53.7056 50.1167 53.7056 45.8667C53.7056 41.6167 50.8546 38.1665 47.3386 38.1665C43.8226 38.1665 40.9727 41.6167 40.9727 45.8667C40.9727 50.1167 43.8226 53.5667 47.3386 53.5667Z" fill="#E8EDFC"/>
<path d="M54.4992 51.2566C53.9992 49.3266 52.5632 47.7865 50.6792 47.1465H46.9372C45.0532 47.7865 43.6172 49.3266 43.1172 51.2566L49.2982 53.2166L54.4992 51.2566Z" fill="#E8EDFC"/>
<path d="M48.8081 47.8264C50.4301 47.8264 51.7461 46.5062 51.7461 44.8862C51.7461 43.2662 50.4301 41.9463 48.8081 41.9463C47.1851 41.9463 45.8691 43.2662 45.8691 44.8862C45.8691 46.5062 47.1851 47.8264 48.8081 47.8264Z" fill="#E8EDFC"/>
<path d="M57.6219 29.2967C57.6329 33.0067 56.8999 36.6767 55.4679 40.1067C55.0439 39.6067 54.5599 39.1567 54.0279 38.7767C56.8079 30.9567 56.0169 22.3165 51.8629 15.1365L41.2749 4.63653C37.3079 2.38653 32.8539 1.13664 28.2969 0.996641C28.6299 0.986641 28.9629 0.976622 29.2959 0.976622C34.1809 0.966622 38.9839 2.22653 43.2339 4.63653L53.8219 15.1365C56.3199 19.4365 57.6319 24.3167 57.6219 29.2967Z" fill="#7ADFC1"/>
<path d="M55.6631 29.2966C55.6701 32.5266 55.117 35.7366 54.027 38.7766C52.518 37.6566 50.6871 37.0466 48.8061 37.0466C48.4791 37.0466 48.1521 37.0667 47.8271 37.1067H47.8171C43.3621 37.6167 39.9961 41.3867 39.9911 45.8667V46.0767C39.4231 45.5267 38.8741 44.9665 38.3261 44.4065C38.2791 44.3565 38.2301 44.3166 38.1791 44.2666C36.9351 43.1466 35.5241 42.2166 33.9971 41.5166C32.8781 40.8966 31.581 40.6865 30.324 40.9065C29.883 41.0365 29.4841 41.2867 29.1681 41.6167C28.4311 42.6567 27.8131 43.7866 27.3261 44.9666C26.9141 45.7266 26.3551 46.3965 25.6811 46.9465C24.9661 47.4965 24.0161 47.6667 23.3991 48.3467C22.6741 49.1467 22.752 50.3666 22.272 51.3066C21.884 51.9366 21.6551 52.6665 21.6061 53.4065C21.7351 54.6565 22.4331 55.7665 23.4971 56.4265C23.9321 56.7265 24.3831 57.0066 24.8481 57.2666C18.1491 56.1966 12.056 52.7667 7.67805 47.5767H7.6681L2.19306 37.5066C0.178063 30.8366 0.683046 23.6567 3.61305 17.3367C3.64305 17.2767 3.66209 17.2265 3.69209 17.1665C3.71109 17.1165 3.74109 17.0566 3.77009 16.9966C3.84809 16.8366 3.93708 16.6566 4.01508 16.4966C4.09308 16.3466 4.17206 16.2066 4.24006 16.0566C4.25006 16.0466 4.26009 16.0266 4.27009 16.0266C4.47709 15.6366 4.74105 15.2966 5.05305 14.9966C5.31705 14.7266 5.63007 14.5167 5.97407 14.3667C6.20107 14.2667 6.43709 14.1867 6.67909 14.1167C8.14809 13.7367 9.76409 14.1067 10.2051 15.8267C10.7541 17.9667 8.51108 20.1866 9.29408 22.2466C9.77408 23.5066 11.1851 24.1166 12.4681 24.4966C13.7611 24.8666 15.1811 25.2267 15.9841 26.3167C16.8951 27.5466 16.6801 29.3265 17.4341 30.6765C18.3251 32.2665 20.2941 32.8366 22.0761 33.2666C23.8881 33.7066 25.71 34.1665 27.522 34.6265C27.846 34.6965 28.1591 34.7767 28.4821 34.8567C28.7091 34.9367 28.9551 34.9465 29.1871 34.8865C30.2941 34.4265 28.433 32.4367 28.022 32.0967C26.582 30.9267 24.7801 29.7865 24.7801 27.6965C24.7661 26.8065 25.239 25.9766 26.014 25.5466C26.083 25.4966 26.1551 25.4665 26.2291 25.4365C26.9461 25.2065 27.728 25.3166 28.355 25.7266C28.551 25.8166 28.7471 25.9066 28.9521 25.9966C29.3411 26.2166 29.8261 26.1865 30.1871 25.9265C30.3901 25.6665 30.469 25.3366 30.402 25.0266C30.245 23.7466 30.1871 22.5966 31.4011 21.8066C32.6251 21.0166 34.1931 20.9465 35.5541 20.4565C36.9181 19.9065 38.2021 19.1866 39.3741 18.2966C40.0201 17.9166 40.6441 17.5167 41.2451 17.0667L39.0311 12.1365C38.0481 11.4065 36.835 11.0465 35.613 11.1365C35.457 11.1565 35.304 11.1866 35.152 11.2366C34.281 11.4766 33.4871 11.9765 32.6061 12.1865C32.0901 12.2965 31.5501 12.2566 31.0581 12.0667C30.5451 11.8967 30.1721 11.4565 30.0981 10.9165C29.9811 9.5865 31.8611 8.95653 32.3121 7.69653C32.5531 6.74653 32.1281 5.74659 31.2741 5.25659C30.2991 4.73659 29.1741 4.56662 28.0901 4.78662C27.5481 4.85662 27.0011 4.8767 26.4551 4.8667C26.2611 4.8567 26.0681 4.83664 25.8771 4.80664C24.1031 4.55664 22.524 3.55664 21.548 2.05664C23.738 1.42664 25.999 1.06658 28.277 0.996582H28.2961C32.8541 1.13658 37.3081 2.38647 41.2741 4.63647L51.8621 15.1365C54.3611 19.4365 55.6721 24.3266 55.6631 29.2966Z" fill="#D5F5EB"/>
<path d="M54.6847 11.5867C54.6857 13.6667 53.8597 15.6565 52.3907 17.1265C50.9207 18.5965 48.9277 19.4165 46.8487 19.4165C46.3557 19.4165 45.8647 19.3766 45.3797 19.2866C41.6857 18.5766 39.0137 15.3467 39.0137 11.5867C39.0137 7.82667 41.6857 4.59647 45.3797 3.88647C45.8647 3.79647 46.3557 3.74658 46.8487 3.74658C48.9277 3.74658 50.9207 4.57663 52.3907 6.04663C53.8597 7.51663 54.6857 9.50667 54.6847 11.5867Z" fill="#7ADFC1"/>
<path d="M45.3797 19.2869C48.8957 19.2869 51.7467 15.8369 51.7467 11.5869C51.7467 7.33691 48.8957 3.88672 45.3797 3.88672C41.8637 3.88672 39.0137 7.33691 39.0137 11.5869C39.0137 15.8369 41.8637 19.2869 45.3797 19.2869Z" fill="#E8EDFC"/>
<path d="M17.4639 39.9863C17.4649 42.0663 16.6399 44.0564 15.1699 45.5264C13.6999 46.9964 11.707 47.8264 9.62897 47.8264C9.13597 47.8264 8.64394 47.7763 8.15894 47.6863C4.46494 46.9763 1.79297 43.7463 1.79297 39.9863C1.79297 36.2263 4.46494 32.9964 8.15894 32.2864C8.64394 32.1964 9.13597 32.1562 9.62897 32.1562C11.707 32.1562 13.6999 32.9763 15.1699 34.4463C16.6399 35.9163 17.4649 37.9063 17.4639 39.9863Z" fill="#7ADFC1"/>
<path d="M8.15991 47.6865C11.6759 47.6865 14.5259 44.2366 14.5259 39.9866C14.5259 35.7366 11.6759 32.2866 8.15991 32.2866C4.64291 32.2866 1.79297 35.7366 1.79297 39.9866C1.79297 44.2366 4.64291 47.6865 8.15991 47.6865Z" fill="#E8EDFC"/>
<path d="M41.2445 17.0667C40.6435 17.5066 40.0195 17.9166 39.3735 18.2966C38.2015 19.1766 36.9175 19.9065 35.5535 20.4565C34.1925 20.9465 32.6245 21.0166 31.4005 21.8066C30.1855 22.5966 30.2445 23.7466 30.4015 25.0266C30.4685 25.3366 30.3895 25.6665 30.1855 25.9265C29.8245 26.1865 29.3405 26.2166 28.9515 25.9966C28.0405 25.6166 27.2375 25.0165 26.2285 25.4365C25.3335 25.8265 24.7615 26.7165 24.7795 27.6965C24.7795 29.7865 26.5815 30.9267 28.0215 32.0967C28.4325 32.4367 30.2935 34.4265 29.1865 34.8865C28.9545 34.9465 28.7085 34.9367 28.4815 34.8567C26.3465 34.3167 24.2115 33.7866 22.0755 33.2666C20.7825 33.0366 19.5495 32.5466 18.4515 31.8167C18.0355 31.5167 17.6885 31.1265 17.4335 30.6765C16.6785 29.3265 16.8945 27.5466 15.9835 26.3167C15.3355 25.5567 14.4645 25.0266 13.4955 24.7966C13.1525 24.6866 12.8105 24.5866 12.4675 24.4966C11.6375 24.2766 10.8565 23.9065 10.1655 23.4065C9.77653 23.1065 9.47552 22.7066 9.29352 22.2466C8.51052 20.1866 10.7535 17.9667 10.2045 15.8267C9.96153 14.7367 8.98153 13.9666 7.86353 13.9966C7.21353 13.9666 6.56551 14.0967 5.97351 14.3667C5.62951 14.5167 5.31649 14.7266 5.05249 14.9966C4.74049 15.2966 4.47653 15.6366 4.26953 16.0166C4.82353 14.9766 5.45154 13.9866 6.14954 13.0366C9.79354 8.07662 14.8545 4.33665 20.6655 2.31665C20.9595 2.22665 21.2535 2.12664 21.5465 2.05664C21.9405 2.66664 22.4455 3.20647 23.0355 3.63647H23.0455C24.0365 4.37647 25.2225 4.7967 26.4545 4.8667C27.6095 4.9267 28.7555 4.6066 29.8725 4.7666C30.3695 4.8266 30.8475 4.99659 31.2735 5.25659C32.1275 5.74659 32.5525 6.73653 32.3115 7.69653C31.8605 8.95653 29.9805 9.5865 30.0975 10.9165C30.1065 11.0365 30.1365 11.1566 30.1855 11.2566C30.6905 12.0766 31.6835 12.4565 32.6055 12.1765C33.6435 11.9365 34.5545 11.2865 35.6125 11.1365C36.1135 11.0665 36.6235 11.0966 37.1105 11.2266C37.7935 11.4266 38.4415 11.7365 39.0305 12.1365L41.2445 17.0667Z" fill="#7ADFC1"/>
<path d="M39.2884 16.0864C38.6874 16.5364 38.0634 16.9364 37.4174 17.3164C36.2464 18.2064 34.9614 18.9263 33.5974 19.4763C32.2364 19.9663 30.6693 20.0364 29.4443 20.8264C28.2303 21.6164 28.2894 22.7664 28.4454 24.0464C28.5124 24.3564 28.4333 24.6963 28.2303 24.9463C27.8693 25.2063 27.3843 25.2364 26.9963 25.0164C26.0853 24.6364 25.2824 24.0363 24.2734 24.4563C23.3774 24.8463 22.8064 25.7363 22.8234 26.7163C22.8234 28.8063 24.6254 29.9465 26.0654 31.1165C26.4764 31.4565 28.3374 33.4463 27.2314 33.9062C26.9984 33.9662 26.7524 33.9562 26.5254 33.8762C24.3904 33.3362 22.2554 32.8064 20.1204 32.2864C19.5714 32.1564 19.0034 32.0064 18.4554 31.8164C18.0394 31.5164 17.6913 31.1263 17.4363 30.6763C16.6823 29.3263 16.8974 27.5464 15.9864 26.3164C15.3394 25.5564 14.4684 25.0264 13.4984 24.7964C12.6004 24.1764 11.5834 23.7364 10.5114 23.5164C10.3934 23.4764 10.2864 23.4463 10.1684 23.4062C9.7804 23.1063 9.47939 22.7063 9.29639 22.2463C8.51339 20.1863 10.7563 17.9664 10.2073 15.8264C9.96434 14.7364 8.98439 13.9663 7.86639 13.9963C7.46739 13.4363 6.83834 13.0864 6.15234 13.0364C9.79634 8.07638 14.8574 4.33641 20.6684 2.31641C21.3514 2.92641 22.1614 3.37623 23.0394 3.63623H23.0483C23.5203 3.78623 24.0074 3.86623 24.4984 3.88623C26.1434 3.96623 27.7794 3.30637 29.3174 4.27637C29.5294 4.40637 29.7184 4.57636 29.8754 4.76636C30.3764 5.28636 30.5593 6.02631 30.3553 6.71631C29.9053 7.97631 28.0244 8.60628 28.1424 9.93628C28.2304 10.8463 29.2484 11.3063 30.1894 11.2563C30.6934 12.0763 31.6863 12.4563 32.6083 12.1863C33.6463 11.9363 34.5574 11.2862 35.6154 11.1362C36.1164 11.0662 36.6264 11.0963 37.1144 11.2363L39.2884 16.0864Z" fill="#7ADFC1"/>
<path d="M44.213 53.3765C43.537 53.7965 42.852 54.1867 42.137 54.5467C40.21 52.9167 39.072 50.5467 39.012 48.0267C38.444 47.4867 37.896 46.9268 37.347 46.3668C36.071 45.1768 34.609 44.1966 33.018 43.4766C31.568 42.7766 29.462 42.2367 28.189 43.5767C28.011 43.7667 27.85 43.9766 27.709 44.1966C28.061 43.2666 28.553 42.3968 29.168 41.6168C30.442 40.2768 32.548 40.8267 33.997 41.5167C35.588 42.2367 37.051 43.2165 38.327 44.4065C38.875 44.9665 39.424 45.5267 39.992 46.0767C40.064 49.0667 41.654 51.8165 44.213 53.3765Z" fill="#7ADFC1"/>
<path d="M42.1375 54.5468C38.1615 56.5668 33.7604 57.6268 29.2964 57.6168C27.8074 57.6168 26.3204 57.5067 24.8494 57.2667C24.3844 57.0067 23.9334 56.7267 23.4984 56.4267C22.4344 55.7667 21.7364 54.6466 21.6074 53.4066C21.6564 52.6566 21.8854 51.9368 22.2734 51.2968C22.4544 50.9068 22.5854 50.4968 22.6654 50.0668H22.6754C22.7664 49.4368 23.0155 48.8468 23.4005 48.3468C24.0175 47.6668 24.9674 47.4867 25.6824 46.9467C26.2784 46.4667 26.7804 45.8867 27.1614 45.2267C27.1714 45.2067 27.1715 45.1967 27.1815 45.1867C27.2355 45.1167 27.2844 45.0467 27.3284 44.9667C27.4694 44.7167 27.5964 44.4567 27.7104 44.1967C27.8504 43.9767 28.0114 43.7668 28.1904 43.5768C29.4634 42.2268 31.5694 42.7767 33.0184 43.4767C34.6094 44.1967 36.0724 45.1668 37.3484 46.3668C37.8965 46.9268 38.4454 47.4768 39.0134 48.0268C39.0734 50.5468 40.2115 52.9168 42.1375 54.5468Z" fill="#7ADFC1"/>
<path d="M27.7106 44.1963C27.5966 44.4563 27.4696 44.7163 27.3286 44.9663C27.2846 45.0463 27.2356 45.1163 27.1816 45.1863C27.3376 44.8463 27.5146 44.5163 27.7106 44.1963Z" fill="#CAD9FC"/>
<path d="M52.5402 16.9766C52.0402 15.0466 50.6042 13.5067 48.7202 12.8667H44.9782C43.0942 13.5067 41.6582 15.0466 41.1582 16.9766L46.8492 18.9265L52.5402 16.9766Z" fill="#E8EDFC"/>
<path d="M46.8472 13.5466C48.4692 13.5466 49.7852 12.2267 49.7852 10.6067C49.7852 8.98669 48.4692 7.6665 46.8472 7.6665C45.2242 7.6665 43.9082 8.98669 43.9082 10.6067C43.9082 12.2267 45.2242 13.5466 46.8472 13.5466Z" fill="#E8EDFC"/>
<path d="M15.3185 45.3762C14.8185 43.4462 13.3825 41.9064 11.4985 41.2764H7.75653C5.87253 41.9064 4.4365 43.4462 3.9375 45.3762L9.6275 48.3164L15.3185 45.3762Z" fill="#E8EDFC"/>
<path d="M9.63043 41.9463C11.2534 41.9463 12.5684 40.6363 12.5684 39.0063C12.5684 37.3863 11.2534 36.0664 9.63043 36.0664C8.00743 36.0664 6.69141 37.3863 6.69141 39.0063C6.69141 40.6363 8.00743 41.9463 9.63043 41.9463Z" fill="#E8EDFC"/>
<path d="M9.06409 14.3066C9.01509 14.3266 8.96306 14.3467 8.91406 14.3667C8.96406 14.3467 9.01907 14.3367 9.07007 14.3167L9.06409 14.3066Z" fill="white"/>
<path d="M27.7871 57.2666C21.0871 56.1966 14.9941 52.7667 10.6171 47.5767H10.6071L10.6021 47.5667C9.18306 47.2066 7.89509 46.4465 6.88709 45.3865L6.87507 45.3765L6.87708 45.3667C4.88608 43.2767 4.21608 40.2566 5.13508 37.5166L5.13209 37.5066C3.11609 30.8366 3.62207 23.6567 6.55207 17.3367C6.58107 17.2767 6.60107 17.2265 6.63007 17.1665C6.65007 17.1165 6.67908 17.0566 6.70808 16.9966C6.78708 16.8366 6.87507 16.6566 6.95307 16.4866C7.03207 16.3466 7.11009 16.2066 7.17909 16.0566C7.18809 16.0466 7.19808 16.0266 7.20808 16.0166C7.76208 14.9866 8.39106 13.9866 9.08906 13.0366C12.4341 8.50662 16.9601 4.98669 22.1721 2.85669C22.1641 2.84669 22.159 2.83667 22.152 2.83667L22.1741 2.85669C22.6511 2.66669 23.1281 2.47665 23.6041 2.31665C23.8981 2.22665 24.1921 2.13664 24.4861 2.05664C26.5331 1.46664 28.6411 1.12661 30.7681 1.02661C30.2791 0.996611 29.7901 0.976562 29.2951 0.976562C28.9621 0.976562 28.6291 0.986582 28.2961 0.996582H28.2761C25.9981 1.06658 23.7381 1.42664 21.5471 2.05664C21.2531 2.13664 20.9601 2.22665 20.6661 2.31665C14.8551 4.33665 9.79409 8.07662 6.15009 13.0366C5.45309 13.9866 4.82409 14.9866 4.27009 16.0166C4.26009 16.0266 4.25006 16.0466 4.24006 16.0566C4.17206 16.2066 4.09308 16.3466 4.01508 16.4866C3.93708 16.6566 3.84809 16.8366 3.77009 16.9966C3.74109 17.0566 3.71109 17.1165 3.69209 17.1665C3.66209 17.2265 3.64305 17.2767 3.61305 17.3367C0.683046 23.6567 0.178063 30.8366 2.19306 37.5066L2.19605 37.5166C1.27805 40.2566 1.94806 43.2767 3.93806 45.3667L3.93708 45.3765L3.94807 45.3865C4.95707 46.4465 6.24407 47.2066 7.66407 47.5667L7.6681 47.5767H7.67805C12.056 52.7667 18.1491 56.1966 24.8481 57.2666C26.3191 57.5066 27.8061 57.6267 29.2951 57.6167C29.8551 57.6167 30.41 57.6067 30.962 57.5667C29.898 57.5266 28.8381 57.4266 27.7871 57.2666ZM6.75208 14.1067C6.87408 14.0767 6.99609 14.0566 7.11909 14.0366C6.99609 14.0566 6.87408 14.0767 6.75208 14.1067ZM7.30305 14.0066C7.38705 14.0066 7.46907 13.9966 7.55207 13.9966C7.46907 13.9966 7.38705 13.9966 7.30305 14.0066ZM6.61909 14.1465C6.39909 14.1965 6.18307 14.2767 5.97407 14.3667C6.18307 14.2767 6.39909 14.1965 6.61909 14.1465Z" fill="white"/>
<path d="M4.08398 14.3667C7.91498 7.9167 14.068 3.1767 21.282 1.1167L21.814 2.99658C19.098 3.76658 16.518 4.96661 14.167 6.52661C10.743 8.80661 7.87298 11.8267 5.76898 15.3667L4.08398 14.3667Z" fill="white"/>
<path d="M7.78101 10.8966C7.57901 10.7266 7.31702 10.6466 7.05402 10.6666C6.79202 10.6966 6.552 10.8267 6.388 11.0367C5.551 12.0967 4.78098 13.2068 4.08398 14.3668L5.76898 15.3668C6.42098 14.2868 7.13901 13.2467 7.91901 12.2567C8.24701 11.8367 8.18601 11.2366 7.78101 10.8966Z" fill="#20C997"/>
<path d="M21.8158 2.99634L21.2838 1.10645C18.3708 1.93645 15.6038 3.21624 13.0828 4.89624C12.8038 5.08624 12.5158 5.26631 12.2478 5.46631C12.0328 5.61631 11.8888 5.85645 11.8478 6.11646C11.8068 6.37646 11.8728 6.63644 12.0308 6.84644C12.3538 7.26644 12.9518 7.36641 13.3898 7.06641C13.6388 6.86641 13.9088 6.70637 14.1688 6.52637C16.5198 4.95637 19.0988 3.76634 21.8158 2.99634Z" fill="#20C997"/>
<path d="M9.12549 8.04658C8.93749 8.23658 8.8265 8.48654 8.8125 8.75654L8.83148 8.94649C8.84248 9.00649 8.86352 9.06642 8.89252 9.12642C8.91152 9.18642 8.9395 9.24658 8.9765 9.29658C9.0145 9.34658 9.0565 9.39649 9.1015 9.44649C9.2895 9.62649 9.53647 9.72652 9.79547 9.73652C9.92247 9.73652 10.0475 9.71646 10.1645 9.66646C10.5155 9.51646 10.7535 9.18659 10.7795 8.80659C10.7805 8.67659 10.7585 8.54647 10.7145 8.42647C10.5885 8.05647 10.2435 7.79656 9.8465 7.77656C9.5795 7.76656 9.32049 7.86658 9.12549 8.04658Z" fill="#20C997"/>
<path d="M55.037 42.0964C54.703 42.0964 54.392 41.9262 54.212 41.6462C54.033 41.3562 54.009 41.0063 54.149 40.7063C55.805 37.1263 56.657 33.2364 56.644 29.2964C56.647 24.4964 55.382 19.7862 52.976 15.6262C52.8 15.3262 52.8 14.9562 52.974 14.6462C53.148 14.3462 53.471 14.1562 53.821 14.1562C54.171 14.1562 54.495 14.3462 54.671 14.6462C57.249 19.0962 58.606 24.1464 58.603 29.2964C58.616 33.5164 57.702 37.6964 55.926 41.5264C55.766 41.8764 55.419 42.0964 55.037 42.0964Z" fill="#20C997"/>
<path d="M29.297 58.5967C27.755 58.5967 26.216 58.4766 24.693 58.2366C17.782 57.1366 11.493 53.5966 6.97099 48.2566C6.69799 47.9766 6.61996 47.5565 6.77196 47.1965C6.92496 46.8365 7.27797 46.5967 7.66997 46.5967C7.96097 46.5967 8.23796 46.7265 8.42796 46.9465C12.65 51.9565 18.533 55.2766 25.002 56.2966C26.422 56.5266 27.858 56.6365 29.297 56.6365C34.746 56.6465 40.072 55.0166 44.586 51.9666C45.035 51.6666 45.644 51.7866 45.947 52.2366C46.25 52.6766 46.132 53.2867 45.683 53.5967C40.846 56.8667 35.137 58.6067 29.297 58.5967Z" fill="#20C997"/>
<path d="M2.19399 38.4866C1.76299 38.4866 1.38301 38.2066 1.25801 37.7966C0.421011 35.0366 -0.00298419 32.1766 1.58087e-05 29.2966C0.00101581 25.0166 0.932029 20.7965 2.72603 16.9165L2.79903 16.7666C3.15903 15.8366 3.69999 14.9866 4.38899 14.2766C4.73399 13.9366 5.14001 13.6565 5.58601 13.4665C6.78201 12.8865 8.17099 12.8467 9.39699 13.3667C10.288 13.7967 10.935 14.6166 11.154 15.5766C11.364 16.8366 11.179 18.1366 10.625 19.2866C10.194 20.0866 10.048 21.0065 10.212 21.9065C10.475 22.5965 11.282 23.1166 12.749 23.5566L12.927 23.6067C14.412 23.8667 15.767 24.6166 16.773 25.7366C17.303 26.5466 17.642 27.4765 17.765 28.4365C17.851 29.0465 18.028 29.6465 18.291 30.1965C18.974 31.4265 20.65 31.9166 22.307 32.3166C24.279 32.7966 26.249 33.2866 28.219 33.7766C27.978 33.4366 27.703 33.1267 27.396 32.8467L26.913 32.4665C25.527 31.3765 23.801 30.0165 23.801 27.6965C23.741 26.4765 24.375 25.3265 25.439 24.7265C26.503 24.1265 27.815 24.1767 28.828 24.8667C28.99 24.9367 29.155 25.0166 29.323 25.0866C29.362 25.1066 29.397 25.1164 29.428 25.1264C29.291 24.0064 29.071 22.1466 30.87 20.9866C31.768 20.4666 32.75 20.1065 33.772 19.9365C34.263 19.8265 34.748 19.6966 35.223 19.5366C36.481 19.0266 37.667 18.3566 38.748 17.5366C39.049 17.3266 39.305 17.1766 39.567 17.0166C39.932 16.8166 40.28 16.5866 40.606 16.3266C40.871 16.0966 41.238 16.0265 41.568 16.1465C41.898 16.2565 42.142 16.5465 42.208 16.8865C42.273 17.2265 42.15 17.5866 41.885 17.8166C41.473 18.1466 41.031 18.4465 40.566 18.7065C40.344 18.8365 40.126 18.9667 39.931 19.0967C38.691 20.0367 37.331 20.8064 35.888 21.3764C35.341 21.5664 34.783 21.7166 34.217 21.8366C33.417 21.9766 32.645 22.2465 31.935 22.6365C31.274 23.0565 31.214 23.5965 31.375 24.9065C31.489 25.5165 31.311 26.1467 30.895 26.6067C30.258 27.1867 29.322 27.2965 28.562 26.8865C28.382 26.8165 28.186 26.7265 27.992 26.6365C27.28 26.2965 26.977 26.1866 26.608 26.3366C26.082 26.5766 25.749 27.1065 25.76 27.6865C25.76 29.0665 26.908 29.9665 28.122 30.9265L28.639 31.3366C28.67 31.3566 30.721 33.1464 30.497 34.6264C30.416 35.1564 30.061 35.5966 29.565 35.7866C29.139 35.9466 28.675 35.9466 28.245 35.8066C26.111 35.2666 23.978 34.7365 21.846 34.2265C19.859 33.7465 17.649 33.0665 16.58 31.1565C16.213 30.4165 15.965 29.6366 15.844 28.8266C15.765 28.1466 15.545 27.4865 15.197 26.8965C14.427 26.1465 13.446 25.6566 12.388 25.4866L12.198 25.4365C10.869 25.0365 9.03702 24.3167 8.38002 22.5967C8.01602 21.2667 8.16099 19.8467 8.78499 18.6167C9.17999 17.8267 9.34304 16.9466 9.25704 16.0666C9.17803 15.6666 8.915 15.3164 8.545 15.1264C7.834 14.8764 7.048 14.9166 6.373 15.2566C6.139 15.3566 5.92599 15.5065 5.74599 15.6865C5.23899 16.2365 4.84103 16.8866 4.57503 17.5866L4.50099 17.7466C2.82699 21.3666 1.96 25.3066 1.959 29.2966C1.956 31.9766 2.351 34.6565 3.131 37.2265C3.221 37.5265 3.16503 37.8467 2.98103 38.0967C2.79603 38.3467 2.50399 38.4866 2.19399 38.4866Z" fill="#20C997"/>
<path d="M32.039 13.2266C31.344 13.2366 30.663 13.0266 30.088 12.6366C29.543 12.2666 29.191 11.6667 29.125 11.0067C29.132 9.94667 29.66 8.96678 30.535 8.36678C30.887 8.09678 31.179 7.75678 31.392 7.36678C31.473 6.84678 31.218 6.33675 30.756 6.08675C29.929 5.67675 28.985 5.56668 28.085 5.76668C27.529 5.83668 26.97 5.85676 26.41 5.84676C24.099 5.73676 21.982 4.51674 20.722 2.57674C20.557 2.31674 20.525 1.99662 20.634 1.70662C20.744 1.41662 20.983 1.19678 21.279 1.11678C28.816 -1.02322 36.895 -0.0632977 43.718 3.7867C44.022 3.9567 44.212 4.28656 44.214 4.63656C44.217 4.97656 44.033 5.30665 43.731 5.48665C43.43 5.65665 43.056 5.66665 42.752 5.48665C36.853 2.16665 29.931 1.13678 23.321 2.61678C24.212 3.37678 25.329 3.82656 26.5 3.88656C26.969 3.89656 27.439 3.87673 27.905 3.81673C29.234 3.55673 30.612 3.77659 31.798 4.42659C33.046 5.1466 33.641 6.63668 33.239 8.01668C32.936 8.71668 32.463 9.33672 31.862 9.80672C31.372 10.2667 31.053 10.5768 31.076 10.8368C31.078 10.8668 31.086 10.9467 31.23 11.0467C31.576 11.2567 31.988 11.3166 32.381 11.2266C32.79 11.1166 33.189 10.9667 33.573 10.7867C34.175 10.4967 34.813 10.2866 35.47 10.1666C36.924 10.0466 38.372 10.4467 39.555 11.3067C39.856 11.4867 40.035 11.8166 40.023 12.1766C40.011 12.5266 39.81 12.8467 39.497 13.0067C39.184 13.1667 38.807 13.1566 38.511 12.9666C37.727 12.3466 36.747 12.0468 35.755 12.1068C35.27 12.2068 34.799 12.3668 34.354 12.5868C33.865 12.8168 33.355 12.9966 32.832 13.1366C32.572 13.1966 32.306 13.2266 32.039 13.2266Z" fill="#20C997"/>
<path d="M24.8469 58.2464C24.6769 58.2464 24.509 58.1965 24.361 58.1165C23.865 57.8465 23.384 57.5463 22.921 57.2163C21.608 56.3763 20.76 54.9663 20.627 53.4163C20.671 52.5063 20.938 51.6265 21.405 50.8465C21.547 50.5165 21.6539 50.1765 21.7219 49.8265C21.8459 49.0465 22.1739 48.3063 22.6719 47.6863C23.1259 47.2263 23.668 46.8663 24.265 46.6263C24.553 46.4963 24.827 46.3463 25.085 46.1663C25.657 45.6963 26.1309 45.1264 26.4789 44.4764C26.6689 44.1364 26.84 43.7565 27.015 43.3665C27.358 42.4865 27.8449 41.6663 28.4559 40.9463C29.7699 39.5563 31.9429 39.4463 34.4199 40.6363C36.1169 41.3963 37.6729 42.4363 39.0239 43.7163C39.9179 44.6363 40.7939 45.5165 41.7119 46.3365C42.1069 46.7065 42.1369 47.3163 41.7789 47.7163C41.4209 48.1163 40.809 48.1564 40.405 47.7964C39.443 46.9364 38.5409 46.0265 37.6249 45.0865C36.4299 43.9765 35.0599 43.0663 33.5699 42.3963C32.7879 42.0263 30.855 41.2564 29.879 42.2864C29.426 42.8564 29.0619 43.4963 28.7999 44.1763C28.6069 44.6063 28.4079 45.0463 28.1769 45.4463C27.7009 46.3263 27.0529 47.0964 26.2729 47.7264C25.9099 47.9864 25.521 48.2063 25.111 48.3863C24.747 48.5363 24.4119 48.7364 24.1219 49.0064C23.8599 49.3864 23.691 49.8264 23.627 50.2864C23.525 50.7864 23.364 51.2764 23.145 51.7464C22.833 52.2464 22.6419 52.8163 22.5859 53.4063C22.7389 54.3263 23.28 55.1363 24.072 55.6263C24.479 55.9163 24.9009 56.1763 25.3359 56.4163C25.7209 56.6363 25.9089 57.0864 25.7949 57.5164C25.6799 57.9464 25.2909 58.2464 24.8469 58.2464Z" fill="#20C997"/>
<path d="M46.8482 20.3965C41.9802 20.3965 38.0332 16.4567 38.0332 11.5867C38.0332 6.71667 41.9802 2.7666 46.8482 2.7666C51.7172 2.7666 55.6642 6.71667 55.6642 11.5867C55.6582 16.4467 51.7152 20.3965 46.8482 20.3965ZM46.8482 4.72656C43.0622 4.72656 39.9922 7.79667 39.9922 11.5867C39.9922 15.3667 43.0622 18.4365 46.8482 18.4365C50.6352 18.4365 53.7052 15.3667 53.7052 11.5867C53.7012 7.79667 50.6332 4.72656 46.8482 4.72656Z" fill="#20C997"/>
<path d="M41.158 17.9465C41.075 17.9465 40.992 17.9364 40.912 17.9164C40.389 17.7864 40.074 17.2465 40.209 16.7265C40.785 14.4765 42.464 12.6765 44.666 11.9365C44.998 11.8265 45.363 11.8964 45.626 12.1364C45.888 12.3664 46.007 12.7166 45.937 13.0566C45.867 13.4066 45.62 13.6866 45.288 13.7966C43.722 14.3266 42.527 15.6165 42.106 17.2165C41.994 17.6465 41.604 17.9465 41.158 17.9465Z" fill="#20C997"/>
<path d="M52.5392 17.9465C52.0932 17.9465 51.7032 17.6465 51.5922 17.2165C51.1702 15.6165 49.9752 14.3366 48.4092 13.7966C47.8962 13.6266 47.6193 13.0666 47.7913 12.5566C47.9633 12.0466 48.5183 11.7665 49.0313 11.9365C51.2333 12.6765 52.9122 14.4765 53.4882 16.7265C53.6232 17.2465 53.3092 17.7864 52.7852 17.9165C52.7052 17.9365 52.6222 17.9465 52.5392 17.9465Z" fill="#20C997"/>
<path d="M46.8496 14.5266C44.6856 14.5266 42.9316 12.7667 42.9316 10.6067C42.9316 8.43669 44.6856 6.68652 46.8496 6.68652C49.0126 6.68652 50.7667 8.43669 50.7667 10.6067C50.7647 12.7667 49.0116 14.5166 46.8496 14.5266ZM46.8496 8.64648C45.7676 8.64648 44.8906 9.52669 44.8906 10.6067C44.8906 11.6867 45.7676 12.5667 46.8496 12.5667C47.9306 12.5667 48.8076 11.6867 48.8076 10.6067C48.8066 9.52669 47.9306 8.64648 46.8496 8.64648Z" fill="#20C997"/>
<path d="M9.62848 48.8069C4.75948 48.8069 0.8125 44.8568 0.8125 39.9868C0.8125 35.1168 4.75948 31.1768 9.62848 31.1768C14.4965 31.1768 18.4435 35.1168 18.4435 39.9868C18.4385 44.8568 14.4945 48.7969 9.62848 48.8069ZM9.62848 33.1367C5.84148 33.1367 2.77148 36.2068 2.77148 39.9868C2.77148 43.7768 5.84148 46.8469 9.62848 46.8469C13.4145 46.8469 16.4845 43.7768 16.4845 39.9868C16.4805 36.2068 13.4135 33.1367 9.62848 33.1367Z" fill="#20C997"/>
<path d="M3.93927 46.3569C3.85627 46.3569 3.77323 46.3469 3.69323 46.3269C3.17023 46.1869 2.85523 45.6567 2.99023 45.1367C3.56723 42.8867 5.24526 41.0769 7.44726 40.3469C7.77926 40.2369 8.14522 40.3069 8.40722 40.5369C8.66922 40.7669 8.78826 41.1268 8.71826 41.4668C8.64926 41.8068 8.40121 42.0868 8.06921 42.2068C6.50321 42.7368 5.30823 44.0167 4.88623 45.6267C4.77423 46.0567 4.38527 46.3569 3.93927 46.3569Z" fill="#20C997"/>
<path d="M15.3206 46.3567C14.8736 46.3567 14.4846 46.0567 14.3726 45.6167C13.9506 44.0167 12.7556 42.7365 11.1896 42.1965C10.6766 42.0265 10.4006 41.4766 10.5726 40.9566C10.7436 40.4466 11.2996 40.1667 11.8126 40.3467C14.0146 41.0767 15.6926 42.8765 16.2686 45.1265C16.4036 45.6565 16.0896 46.1867 15.5656 46.3267C15.4856 46.3467 15.4036 46.3567 15.3206 46.3567Z" fill="#20C997"/>
<path d="M9.62701 42.9268C7.46301 42.9268 5.70898 41.1768 5.70898 39.0068C5.70898 36.8468 7.46301 35.0869 9.62701 35.0869C11.791 35.0869 13.545 36.8468 13.545 39.0068C13.542 41.1668 11.79 42.9268 9.62701 42.9268ZM9.62701 37.0469C8.54501 37.0469 7.66803 37.9268 7.66803 39.0068C7.66803 40.0868 8.54501 40.9668 9.62701 40.9668C10.709 40.9668 11.586 40.0868 11.586 39.0068C11.585 37.9268 10.708 37.0469 9.62701 37.0469Z" fill="#20C997"/>
<path d="M48.8082 54.6766C45.2422 54.6766 42.0282 52.5367 40.6632 49.2367C39.2992 45.9467 40.0532 42.1566 42.5742 39.6266C45.0962 37.1066 48.8872 36.3567 52.1812 37.7167C55.4752 39.0867 57.6232 42.2968 57.6232 45.8668C57.6182 50.7268 53.6742 54.6766 48.8082 54.6766ZM48.8082 39.0067C45.0212 39.0067 41.9512 42.0768 41.9512 45.8668C41.9512 49.6468 45.0212 52.7167 48.8082 52.7167C52.5942 52.7167 55.6642 49.6468 55.6642 45.8668C55.6602 42.0768 52.5932 39.0167 48.8082 39.0067Z" fill="#20C997"/>
<path d="M43.1169 52.2368C43.0339 52.2368 42.9509 52.2167 42.8709 52.1967C42.3479 52.0667 42.033 51.5268 42.168 51.0068C42.744 48.7568 44.4229 46.9567 46.6249 46.2167C47.1379 46.0467 47.6929 46.3269 47.8649 46.8369C48.0369 47.3469 47.7599 47.9069 47.2469 48.0769C45.6809 48.6169 44.4859 49.8968 44.0649 51.4968C43.9529 51.9268 43.5629 52.2268 43.1169 52.2368Z" fill="#20C997"/>
<path d="M54.498 52.2268C54.052 52.2268 53.662 51.9268 53.55 51.4968C53.128 49.8968 51.934 48.6169 50.367 48.0769C50.036 47.9669 49.788 47.6869 49.719 47.3469C49.649 46.9969 49.768 46.6467 50.03 46.4167C50.292 46.1867 50.658 46.1068 50.99 46.2168C53.192 46.9568 54.87 48.7568 55.447 51.0068C55.582 51.5268 55.267 52.0667 54.744 52.1967C54.663 52.2167 54.581 52.2268 54.498 52.2268Z" fill="#20C997"/>
<path d="M48.8067 48.8069C46.6427 48.8069 44.8887 47.0467 44.8887 44.8867C44.8887 42.7167 46.6427 40.9668 48.8067 40.9668C50.9697 40.9668 52.7237 42.7167 52.7237 44.8867C52.7217 47.0467 50.9687 48.7969 48.8067 48.8069ZM48.8067 42.9268C47.7247 42.9268 46.8477 43.8067 46.8477 44.8867C46.8477 45.9667 47.7247 46.8469 48.8067 46.8469C49.8877 46.8469 50.7657 45.9667 50.7657 44.8867C50.7637 43.8067 49.8877 42.9268 48.8067 42.9268Z" fill="#20C997"/>
</svg>
