<svg width="56" height="64" viewBox="0 0 56 64" fill="none" xmlns="http://www.w3.org/2000/svg">
<path d="M12 0C9.8 0 8 1.8 8 4V60C8 62.2 9.8 64 12 64H52C54.2 64 56 62.2 56 60V16L40 0H12Z" fill="#E2E5E7"/>
<path d="M44 16H56L40 0V12C40 14.2 41.8 16 44 16Z" fill="#B0B7BD"/>
<path d="M56 28L44 16H56V28Z" fill="#CAD1D8"/>
<path d="M48 52C48 53.1 47.1 54 46 54H2C0.9 54 0 53.1 0 52V32C0 30.9 0.9 30 2 30H46C47.1 30 48 30.9 48 32V52Z" fill="#F15642"/>
<path d="M8.71777 37.894C8.71777 37.366 9.13377 36.79 9.80377 36.79H13.4978C15.5778 36.79 17.4498 38.182 17.4498 40.85C17.4498 43.378 15.5778 44.786 13.4978 44.786H10.8278V46.898C10.8278 47.602 10.3798 48 9.80377 48C9.27577 48 8.71777 47.602 8.71777 46.898V37.894ZM10.8278 38.804V42.788H13.4978C14.5698 42.788 15.4178 41.842 15.4178 40.85C15.4178 39.732 14.5698 38.804 13.4978 38.804H10.8278Z" fill="white"/>
<path d="M20.5815 48.0001C20.0535 48.0001 19.4775 47.7121 19.4775 47.0101V37.9261C19.4775 37.3521 20.0535 36.9341 20.5815 36.9341H24.2435C31.5515 36.9341 31.3915 48.0001 24.3875 48.0001H20.5815ZM21.5895 38.8861V46.0501H24.2435C28.5615 46.0501 28.7535 38.8861 24.2435 38.8861H21.5895Z" fill="white"/>
<path d="M33.9836 39.0139V41.5559H38.0616C38.6376 41.5559 39.2136 42.1319 39.2136 42.6899C39.2136 43.2179 38.6376 43.6499 38.0616 43.6499H33.9836V47.0079C33.9836 47.5679 33.5856 47.9979 33.0256 47.9979C32.3216 47.9979 31.8916 47.5679 31.8916 47.0079V37.9239C31.8916 37.3499 32.3236 36.9319 33.0256 36.9319H38.6396C39.3436 36.9319 39.7596 37.3499 39.7596 37.9239C39.7596 38.4359 39.3436 39.0119 38.6396 39.0119H33.9836V39.0139Z" fill="white"/>
<path d="M46 54H8V56H46C47.1 56 48 55.1 48 54V52C48 53.1 47.1 54 46 54Z" fill="#CAD1D8"/>
</svg>
