<svg width="45" height="59" viewBox="0 0 45 59" fill="none" xmlns="http://www.w3.org/2000/svg">
<path d="M3.79797 46.9703C1.44997 48.3903 0.011 50.9303 0 53.6703V57.6205C0 58.1605 0.438027 58.6005 0.978027 58.6005H18.575H18.578H18.581H26.397H26.4H26.403H44C44.54 58.6005 44.978 58.1605 44.978 57.6205V53.6703C44.967 50.9303 43.528 48.3903 41.179 46.9703L30.311 40.4403L30.31 37.4103C31.651 35.6503 32.599 33.6303 33.091 31.4703C33.195 30.9403 33.455 30.4504 33.837 30.0604C34.713 29.1904 35.204 28.0004 35.2 26.7704V23.2904C35.199 22.5704 35.031 21.8603 34.709 21.2103L34.507 20.8104C34.32 20.4304 34.223 20.0205 34.222 19.6005V13.3104L41.731 10.5704C42.506 10.2904 43.022 9.56035 43.022 8.73035C43.023 7.91035 42.506 7.18027 41.732 6.90027L23.171 0.120488C22.73 -0.0395117 22.248 -0.0395117 21.807 0.120488L18.134 1.46033C17.804 1.58033 17.564 1.87033 17.503 2.21033C17.442 2.56033 17.57 2.91025 17.839 3.13025C18.108 3.36025 18.476 3.42042 18.805 3.30042L22.462 1.96033C22.475 1.96033 22.487 1.96033 22.499 1.96033L41.061 8.73035L22.478 15.5104L3.91699 8.74036L11.457 5.98035C11.964 5.80035 12.225 5.24035 12.04 4.73035C11.855 4.22035 11.293 3.96027 10.786 4.15027L3.24597 6.90027C2.46997 7.18027 1.95199 7.91035 1.95599 8.73035V15.5804C1.95599 16.1204 2.39398 16.5604 2.93298 16.5604C3.47298 16.5604 3.91101 16.1204 3.91101 15.5804V10.8104L10.756 13.3104V19.6005C10.755 20.0205 10.658 20.4304 10.471 20.8104L10.27 21.2103C9.94702 21.8603 9.77902 22.5704 9.77802 23.2904V26.7704C9.77501 28.0004 10.266 29.1904 11.143 30.0604C11.525 30.4504 11.783 30.9403 11.887 31.4703C12.378 33.6303 13.326 35.6503 14.667 37.4003L14.662 40.4503L3.79797 46.9703ZM15.657 42.1303C15.675 42.1203 15.689 42.1005 15.707 42.0905L20.777 44.2604L18.404 46.6403L13.032 43.7103L15.657 42.1303ZM29.27 42.0905C29.284 42.1005 29.295 42.1105 29.31 42.1205L31.946 43.7103L26.574 46.6403L24.202 44.2604L29.27 42.0905ZM22.977 48.8204H22.001L20.709 47.1005L22.489 45.3204L24.269 47.1005L22.977 48.8204ZM18.577 48.8204C18.837 48.8204 19.086 48.7204 19.269 48.5404L19.312 48.4904L20.408 49.9603L18.393 55.3304L13.021 45.9303L18.11 48.7003C18.253 48.7803 18.414 48.8204 18.577 48.8204ZM22.189 50.7804H22.789L24.989 56.6503H19.989L22.189 50.7804ZM24.57 49.9603L25.666 48.4904L25.709 48.5404C26.016 48.8404 26.488 48.9103 26.869 48.7003L31.957 45.9303L26.585 55.3304L24.57 49.9603ZM1.95599 53.6703C1.94899 51.6103 3.03299 49.7003 4.80499 48.6503L10.401 45.2904L16.893 56.6503H1.95502L1.95599 53.6703ZM43.023 53.6703V56.6503H28.085L34.577 45.2904L40.172 48.6403C41.945 49.7003 43.029 51.6103 43.023 53.6703ZM21.807 17.3505C22.248 17.5105 22.73 17.5105 23.171 17.3505L32.267 14.0304V17.8605L24.458 21.0504C23.197 21.5704 21.782 21.5704 20.521 21.0504L12.711 17.8605V14.0304L21.807 17.3505ZM13.803 31.0805C13.624 30.1705 13.178 29.3303 12.524 28.6803C12.016 28.1703 11.732 27.4804 11.733 26.7704V23.2904C11.734 22.8704 11.831 22.4604 12.018 22.0805L12.219 21.6803C12.486 21.1403 12.645 20.5603 12.69 19.9603L19.779 22.8605C21.515 23.5805 23.463 23.5805 25.198 22.8605L32.288 19.9603C32.333 20.5603 32.492 21.1403 32.758 21.6803L32.96 22.0905C33.147 22.4605 33.244 22.8704 33.244 23.2904V26.7704C33.246 27.4804 32.961 28.1703 32.452 28.6803C31.798 29.3403 31.354 30.1705 31.175 31.0805C30.733 32.9705 29.896 34.7404 28.72 36.2704C28.484 36.6004 28.357 37.0003 28.356 37.4003V40.3605L22.489 42.8705L16.622 40.3605V37.4003C16.62 36.9903 16.49 36.5904 16.25 36.2604C15.077 34.7304 14.243 32.9604 13.803 31.0805Z" fill="white"/>
</svg>
