<svg width="24" height="30" viewBox="0 0 24 30" version="1.1" xmlns="http://www.w3.org/2000/svg" xmlns:xlink="http://www.w3.org/1999/xlink">
<title>download</title>
<desc>Created using Figma</desc>
<g id="Canvas" transform="translate(-4333 -2406)">
<g id="download">
<g id="Vector">
<use xlink:href="#path0_fill" transform="translate(4333 2406)" fill="#999999"/>
</g>
<g id="Vector">
<use xlink:href="#path1_fill" transform="translate(4333.1 2433)" fill="#999999"/>
</g>
</g>
</g>
<defs>
<path id="path0_fill" d="M 10.9315 23.5687C 11.0058 23.6437 11.0801 23.7 11.1545 23.7562C 11.1916 23.775 11.2288 23.7938 11.266 23.8125C 11.3217 23.8313 11.3589 23.8687 11.4146 23.8875C 11.4704 23.9062 11.5075 23.925 11.5633 23.9437C 11.6005 23.9625 11.6376 23.9812 11.6934 23.9812C 11.7863 24 11.8792 24.0188 11.9907 24.0188C 12.1022 24.0188 12.1765 24 12.288 23.9812C 12.3252 23.9812 12.381 23.9625 12.4181 23.9437C 12.4739 23.925 12.511 23.925 12.5668 23.9063C 12.6225 23.8875 12.6597 23.85 12.7154 23.8313C 12.7526 23.8125 12.7898 23.7938 12.8269 23.775C 12.9013 23.7188 12.9942 23.6625 13.0499 23.5875L 23.5679 12.975C 24.144 12.3937 24.144 11.4375 23.5679 10.8562C 22.9919 10.275 22.0441 10.275 21.4681 10.8562L 13.4774 18.8812L 13.4774 1.5C 13.4774 0.675 12.8084 0 11.9907 0C 11.1731 0 10.5041 0.675 10.5041 1.5L 10.5041 18.8812L 2.53194 10.8375C 1.95586 10.2563 1.00813 10.2563 0.432057 10.8375C -0.144017 11.4188 -0.144017 12.375 0.432057 12.9563L 10.9315 23.5687Z"/>
<path id="path1_fill" d="M 22.2996 0L 1.48664 0C 0.668987 0 -2.26844e-06 0.675 -2.26844e-06 1.5C -2.26844e-06 2.325 0.668987 3 1.48664 3L 22.2996 3C 23.1173 3 23.7863 2.325 23.7863 1.5C 23.7863 0.675 23.1173 0 22.2996 0Z"/>
</defs>
</svg>
