<svg width="21px" height="21px" viewBox="1987 649 21 21" version="1.1" xmlns="http://www.w3.org/2000/svg"
     xmlns:xlink="http://www.w3.org/1999/xlink">
    <!-- Generator: Sketch 39.1 (31720) - http://www.bohemiancoding.com/sketch -->
    <desc>Created with Sketch.</desc>
    <defs></defs>
    <path d="M2007.59267,659.245076 C2007.59267,664.767923 2003.11551,669.245076 1997.59267,669.245076 C1992.06982,669.245076 1987.59267,664.767923 1987.59267,659.245076 C1987.59267,653.722228 1992.06982,649.245076 1997.59267,649.245076 C2003.11551,649.245076 2007.59267,653.722228 2007.59267,659.245076 L2007.59267,659.245076 Z"
          id="path11021" stroke="none" fill="#20C997" fill-rule="evenodd"></path>
    <path d="M2004.65105,659.30346 C2004.65105,663.169453 2001.51704,666.30346 1997.65105,666.30346 C1993.78506,666.30346 1990.65105,663.169453 1990.65105,659.30346 C1990.65105,655.437467 1993.78506,652.30346 1997.65105,652.30346 C2001.51704,652.30346 2004.65105,655.437467 2004.65105,659.30346 L2004.65105,659.30346 Z"
          id="path11023" stroke="none" fill="#189671" fill-rule="evenodd"></path>
    <path d="M2001.07477,659.211437 C2001.08036,660.460004 2000.4145,661.616118 1999.32931,662.242014 C1998.24412,662.867911 1996.90549,662.867911 1995.8203,662.242014 C1994.73511,661.616118 1994.06924,660.460004 1994.07484,659.211437 C1994.06924,657.96287 1994.73511,656.806756 1995.8203,656.180859 C1996.90549,655.554963 1998.24412,655.554963 1999.32931,656.180859 C2000.4145,656.806756 2001.08036,657.96287 2001.07477,659.211437 L2001.07477,659.211437 Z"
          id="path11025" stroke="none" fill="#006B00" fill-rule="evenodd"></path>
</svg>