<svg width="368" height="174" viewBox="0 0 368 174" version="1.1" xmlns="http://www.w3.org/2000/svg" xmlns:xlink="http://www.w3.org/1999/xlink">
<title>social_sprite</title>
<desc>Created using Figma</desc>
<g id="Canvas" transform="translate(-4 -404)">
<g id="social_sprite">
<g id="normal">
<g id="html">
<g id="Vector">
<use xlink:href="#path0_fill" transform="translate(4 412)" fill="#BDBDBD"/>
</g>
<g id="arrow-down">
<g id="Vector">
<use xlink:href="#path1_stroke" transform="matrix(1 -5.72119e-18 5.72119e-18 1 12 425)" fill="#FFFFFF"/>
</g>
</g>
<g id="Vector 7">
<use xlink:href="#path2_stroke" transform="matrix(0.965926 0.258819 -0.258819 0.965926 22.8067 421.273)" fill="#FFFFFF"/>
</g>
<g id="arrow-down">
<g id="Vector">
<use xlink:href="#path1_stroke" transform="matrix(-1 -5.72119e-18 -5.72119e-18 1 30 425)" fill="#FFFFFF"/>
</g>
</g>
</g>
<g id="odnoklassniki">
<g id="Rectangle 15">
<use xlink:href="#path3_fill" transform="translate(274 412)" fill="#F58220"/>
</g>
<g id="ok">
<g id="Vector">
<use xlink:href="#path4_fill" transform="translate(285.949 419)" fill="#FFFFFF"/>
</g>
<g id="Vector">
<use xlink:href="#path5_fill" transform="translate(288 421)" fill="#ED812B"/>
</g>
<g id="Vector">
<use xlink:href="#path6_fill" transform="translate(285 429.071)" fill="#FFFFFF"/>
</g>
</g>
</g>
<g id="twitter">
<g id="Vector">
<use xlink:href="#path0_fill" transform="translate(166 412)" fill="#79CCF0"/>
</g>
<g id="Vector">
<use xlink:href="#path7_fill" transform="translate(174.6 423)" fill="#FFFFFF"/>
</g>
</g>
<g id="vk">
<g id="Rectangle 2">
<use xlink:href="#path3_fill" transform="translate(112 412)" fill="#507299"/>
</g>
<g id="Vector">
<use xlink:href="#path8_fill" transform="translate(116.748 423.289)" fill="#FFFFFF"/>
</g>
</g>
<g id="link">
<g id="Vector">
<use xlink:href="#path0_fill" transform="translate(58 412)" fill="#60ADF0"/>
</g>
<g id="Icon 51">
<g id="Vector">
<use xlink:href="#path9_stroke" transform="translate(67 427.8)" fill="#FFFFFF"/>
</g>
<g id="Vector">
<use xlink:href="#path10_stroke" transform="translate(73.7049 421)" fill="#FFFFFF"/>
</g>
<g id="Vector">
<use xlink:href="#path11_stroke" transform="translate(73.0296 427.011)" fill="#FFFFFF"/>
</g>
</g>
</g>
<g id="facebook">
<g id="Rectangle 8">
<use xlink:href="#path3_fill" transform="translate(220 412)" fill="#547BBD"/>
</g>
<g id="Vector">
<use xlink:href="#path12_fill" transform="translate(232.9 420.5)" fill="#FFFFFF"/>
</g>
</g>
</g>
<g id="hover">
<g id="html">
<g id="Vector">
<use xlink:href="#path0_fill" transform="translate(4 456)" fill="#8A8A8A"/>
</g>
<g id="arrow-down">
<g id="Vector">
<use xlink:href="#path1_stroke" transform="matrix(1 -5.72119e-18 5.72119e-18 1 12 469)" fill="#FFFFFF"/>
</g>
</g>
<g id="Vector 7">
<use xlink:href="#path2_stroke" transform="matrix(0.965926 0.258819 -0.258819 0.965926 22.8067 465.273)" fill="#FFFFFF"/>
</g>
<g id="arrow-down">
<g id="Vector">
<use xlink:href="#path1_stroke" transform="matrix(-1 -5.72119e-18 -5.72119e-18 1 30 469)" fill="#FFFFFF"/>
</g>
</g>
</g>
<g id="odnoklassniki">
<g id="Rectangle 15">
<use xlink:href="#path3_fill" transform="translate(274 456)" fill="#FF9947"/>
</g>
<g id="ok">
<g id="Vector">
<use xlink:href="#path4_fill" transform="translate(285.949 463)" fill="#FFFFFF"/>
</g>
<g id="Vector">
<use xlink:href="#path5_fill" transform="translate(288 465)" fill="#FF9947"/>
</g>
<g id="Vector">
<use xlink:href="#path6_fill" transform="translate(285 473.071)" fill="#FFFFFF"/>
</g>
</g>
</g>
<g id="twitter">
<g id="Vector">
<use xlink:href="#path0_fill" transform="translate(166 456)" fill="#67ADCC"/>
</g>
<g id="Vector">
<use xlink:href="#path7_fill" transform="translate(174.6 467)" fill="#FFFFFF"/>
</g>
</g>
<g id="vk">
<g id="Rectangle 2">
<use xlink:href="#path3_fill" transform="translate(112 456)" fill="#6B98CC"/>
</g>
<g id="Vector">
<use xlink:href="#path8_fill" transform="translate(116.748 467.289)" fill="#FFFFFF"/>
</g>
</g>
<g id="link">
<g id="Vector">
<use xlink:href="#path0_fill" transform="translate(58 456)" fill="#80C3FF"/>
</g>
<g id="Icon 51">
<g id="Vector">
<use xlink:href="#path9_stroke" transform="translate(67 471.8)" fill="#FFFFFF"/>
</g>
<g id="Vector">
<use xlink:href="#path10_stroke" transform="translate(73.7049 465)" fill="#FFFFFF"/>
</g>
<g id="Vector">
<use xlink:href="#path11_stroke" transform="translate(73.0296 471.011)" fill="#FFFFFF"/>
</g>
</g>
</g>
<g id="facebook">
<g id="Rectangle 8">
<use xlink:href="#path3_fill" transform="translate(220 456)" fill="#6B9CF0"/>
</g>
<g id="Vector">
<use xlink:href="#path12_fill" transform="translate(232.9 464.5)" fill="#FFFFFF"/>
</g>
</g>
</g>
<g id="active">
<g id="html">
<g id="Vector">
<use xlink:href="#path0_fill" transform="translate(4 500)" fill="#3D3D3D"/>
</g>
<g id="arrow-down">
<g id="Vector">
<use xlink:href="#path1_stroke" transform="matrix(1 -5.72119e-18 5.72119e-18 1 12 513)" fill="#FFFFFF"/>
</g>
</g>
<g id="Vector 7">
<use xlink:href="#path2_stroke" transform="matrix(0.965926 0.258819 -0.258819 0.965926 22.8067 509.273)" fill="#FFFFFF"/>
</g>
<g id="arrow-down">
<g id="Vector">
<use xlink:href="#path1_stroke" transform="matrix(-1 -5.72119e-18 -5.72119e-18 1 30 513)" fill="#FFFFFF"/>
</g>
</g>
</g>
<g id="odnoklassniki">
<g id="Rectangle 15">
<use xlink:href="#path3_fill" transform="translate(274 500)" fill="#BA6522"/>
</g>
<g id="ok">
<g id="Vector">
<use xlink:href="#path4_fill" transform="translate(285.949 507)" fill="#FFFFFF"/>
</g>
<g id="Vector">
<use xlink:href="#path5_fill" transform="translate(288 509)" fill="#BA6522"/>
</g>
<g id="Vector">
<use xlink:href="#path6_fill" transform="translate(285 517.071)" fill="#FFFFFF"/>
</g>
</g>
</g>
<g id="twitter">
<g id="Vector">
<use xlink:href="#path0_fill" transform="translate(166 500)" fill="#5FA0BD"/>
</g>
<g id="Vector">
<use xlink:href="#path7_fill" transform="translate(174.6 511)" fill="#FFFFFF"/>
</g>
</g>
<g id="vk">
<g id="Rectangle 2">
<use xlink:href="#path3_fill" transform="translate(112 500)" fill="#354C66"/>
</g>
<g id="Vector">
<use xlink:href="#path8_fill" transform="translate(116.348 511.229)" fill="#FFFFFF"/>
</g>
</g>
<g id="link">
<g id="Vector">
<use xlink:href="#path0_fill" transform="translate(58 500)" fill="#4B88BD"/>
</g>
<g id="Icon 51">
<g id="Vector">
<use xlink:href="#path9_stroke" transform="translate(67 515.8)" fill="#FFFFFF"/>
</g>
<g id="Vector">
<use xlink:href="#path10_stroke" transform="translate(73.7049 509)" fill="#FFFFFF"/>
</g>
<g id="Vector">
<use xlink:href="#path11_stroke" transform="translate(73.0296 515.011)" fill="#FFFFFF"/>
</g>
</g>
</g>
<g id="facebook">
<g id="Rectangle 8">
<use xlink:href="#path3_fill" transform="translate(220 500)" fill="#3D5A8A"/>
</g>
<g id="Vector">
<use xlink:href="#path12_fill" transform="translate(232.9 508.5)" fill="#FFFFFF"/>
</g>
</g>
</g>
<g id="disabled">
<g id="html">
<g id="Vector">
<use xlink:href="#path0_fill" transform="translate(4 544)" fill="#E0E0E0"/>
</g>
<g id="arrow-down">
<g id="Vector">
<use xlink:href="#path1_stroke" transform="matrix(1 -5.72119e-18 5.72119e-18 1 12 557)" fill="#BDBDBD"/>
</g>
</g>
<g id="Vector 7">
<use xlink:href="#path2_stroke" transform="matrix(0.965926 0.258819 -0.258819 0.965926 22.8066 553.273)" fill="#BDBDBD"/>
</g>
<g id="arrow-down">
<g id="Vector">
<use xlink:href="#path1_stroke" transform="matrix(-1 -5.72119e-18 -5.72119e-18 1 30 557)" fill="#BDBDBD"/>
</g>
</g>
</g>
<g id="odnoklassniki">
<g id="Rectangle 15">
<use xlink:href="#path3_fill" transform="translate(274 544)" fill="#E0E0E0"/>
</g>
<g id="Vector">
<use xlink:href="#path4_fill" transform="translate(285.949 551)" fill="#BDBDBD"/>
</g>
<g id="Vector">
<use xlink:href="#path5_fill" transform="translate(288 553)" fill="#E0E0E0"/>
</g>
<g id="Vector">
<use xlink:href="#path6_fill" transform="translate(285 561.071)" fill="#BDBDBD"/>
</g>
</g>
<g id="twitter">
<g id="Vector">
<use xlink:href="#path0_fill" transform="translate(166 544)" fill="#E0E0E0"/>
</g>
<g id="Vector">
<use xlink:href="#path7_fill" transform="translate(174.6 555)" fill="#BDBDBD"/>
</g>
</g>
<g id="vk">
<g id="Rectangle">
<use xlink:href="#path3_fill" transform="translate(112 544)" fill="#E0E0E0"/>
</g>
<g id="Vector">
<use xlink:href="#path8_fill" transform="translate(116.348 555.279)" fill="#BDBDBD"/>
</g>
</g>
<g id="link">
<g id="Vector">
<use xlink:href="#path0_fill" transform="translate(58 544)" fill="#E0E0E0"/>
</g>
<g id="Icon 51">
<g id="Vector">
<use xlink:href="#path9_stroke" transform="translate(67 559.8)" fill="#BDBDBD"/>
</g>
<g id="Vector">
<use xlink:href="#path10_stroke" transform="translate(73.7049 553)" fill="#BDBDBD"/>
</g>
<g id="Vector">
<use xlink:href="#path11_stroke" transform="translate(73.0296 559.011)" fill="#BDBDBD"/>
</g>
</g>
</g>
<g id="facebook">
<g id="Rectangle 8">
<use xlink:href="#path3_fill" transform="translate(220 544)" fill="#E0E0E0"/>
</g>
<g id="Vector">
<use xlink:href="#path12_fill" transform="translate(232.9 552.5)" fill="#BDBDBD"/>
</g>
</g>
</g>
<g id="share" filter="url(#filter0_d)">
<use xlink:href="#path13_fill" transform="translate(328 412)" fill="#FFFFFF"/>
</g>
<g id="share" filter="url(#filter1_d)">
<use xlink:href="#path13_fill" transform="translate(328 457)" fill="#F2F2F2"/>
</g>
</g>
</g>
<defs>
<filter id="filter0_d" filterUnits="userSpaceOnUse" x="317" y="403" width="56" height="47" color-interpolation-filters="sRGB">
<feFlood flood-opacity="0" result="BackgroundImageFix"/>
<feColorMatrix in="SourceAlpha" type="matrix" values="0 0 0 0 0 0 0 0 0 0 0 0 0 0 0 0 0 0 255 0"/>
<feOffset dx="0" dy="2"/>
<feGaussianBlur stdDeviation="5"/>
<feColorMatrix type="matrix" values="0 0 0 0 0 0 0 0 0 0 0 0 0 0 0 0 0 0 0.25 0"/>
<feBlend mode="normal" in2="BackgroundImageFix" result="effect1_dropShadow"/>
<feBlend mode="normal" in="SourceGraphic" in2="effect1_dropShadow" result="shape"/>
</filter>
<filter id="filter1_d" filterUnits="userSpaceOnUse" x="317" y="448" width="56" height="47" color-interpolation-filters="sRGB">
<feFlood flood-opacity="0" result="BackgroundImageFix"/>
<feColorMatrix in="SourceAlpha" type="matrix" values="0 0 0 0 0 0 0 0 0 0 0 0 0 0 0 0 0 0 255 0"/>
<feOffset dx="0" dy="2"/>
<feGaussianBlur stdDeviation="5"/>
<feColorMatrix type="matrix" values="0 0 0 0 0 0 0 0 0 0 0 0 0 0 0 0 0 0 0.25 0"/>
<feBlend mode="normal" in2="BackgroundImageFix" result="effect1_dropShadow"/>
<feBlend mode="normal" in="SourceGraphic" in2="effect1_dropShadow" result="shape"/>
</filter>
<path id="path0_fill" d="M 31 6.10352e-06L 3 6.10352e-06C 1.34315 6.10352e-06 0 1.34315 0 3.00001L 0 31C 0 32.6569 1.34315 34 3 34L 31 34C 32.6569 34 34 32.6569 34 31L 34 3.00001C 34 1.34315 32.6569 6.10352e-06 31 6.10352e-06Z"/>
<path id="path1_stroke" d="M 0 4.03365L -0.802403 3.43686C -1.06738 3.79313 -1.06571 4.28145 -0.798305 4.6359L 0 4.03365ZM 2.19397 8.60225C 2.52659 9.04315 3.15364 9.13092 3.59453 8.79831C 4.03542 8.46569 4.1232 7.83864 3.79058 7.39775L 2.19397 8.60225ZM 3.8024 0.596782C 4.13199 0.153627 4.03993 -0.47281 3.59678 -0.802403C 3.15362 -1.132 2.52719 -1.03994 2.19759 -0.596782L 3.8024 0.596782ZM -0.798305 4.6359L 2.19397 8.60225L 3.79058 7.39775L 0.798305 3.43139L -0.798305 4.6359ZM 0.802403 4.63043L 3.8024 0.596782L 2.19759 -0.596782L -0.802403 3.43686L 0.802403 4.63043Z"/>
<path id="path2_stroke" d="M 1 0C 1 -0.552285 0.552285 -1 0 -1C -0.552285 -1 -1 -0.552285 -1 0L 1 0ZM -1 16C -1 16.5523 -0.552285 17 0 17C 0.552285 17 1 16.5523 1 16L -1 16ZM -1 0L -1 16L 1 16L 1 0L -1 0Z"/>
<path id="path3_fill" d="M 0 3C 0 1.34315 1.34315 0 3 0L 31 0C 32.6569 0 34 1.34315 34 3L 34 31C 34 32.6569 32.6569 34 31 34L 3 34C 1.34315 34 0 32.6569 0 31L 0 3Z"/>
<path id="path4_fill" d="M 5.07268 2.20686e-05C 7.86852 0.00722429 10.1127 2.29657 10.0988 5.12656C 10.0839 7.89078 7.80279 10.1316 5.01368 10.1201C 2.24999 10.1105 -0.0157484 7.81779 8.24798e-05 5.04734C 0.0149539 2.24904 2.28213 -0.00814045 5.07268 2.20686e-05Z"/>
<path id="path5_fill" d="M 3.01383 1.3084e-05C 4.67491 0.00428311 6.00823 1.36158 5.99996 3.03942C 5.99113 4.67826 4.63587 6.00681 2.97877 5.99997C 1.33678 5.99428 -0.00935659 4.63499 4.90036e-05 2.99245C 0.00888456 1.3334 1.35588 -0.00482628 3.01383 1.3084e-05Z"/>
<path id="path6_fill" d="M 11.6844 2.03916C 11.066 2.67487 10.322 3.13437 9.4954 3.45559C 8.71393 3.75809 7.85762 3.91125 7.00995 4.01257C 7.13804 4.15229 7.19848 4.21999 7.27764 4.30065C 8.42897 5.45781 9.58367 6.61065 10.7316 7.77116C 11.1221 8.16633 11.2047 8.65656 10.9893 9.11558C 10.7537 9.61926 10.2275 9.94912 9.71032 9.91359C 9.38315 9.89054 9.12793 9.72777 8.90198 9.4997C 8.03224 8.62631 7.14811 7.76828 6.29708 6.87809C 6.04954 6.61881 5.93057 6.66682 5.71134 6.89297C 4.83792 7.79309 3.95347 8.68233 3.05798 9.56068C 2.65694 9.9568 2.18009 10.0274 1.71476 9.80075C 1.22016 9.56068 0.906423 9.05604 0.930409 8.54756C 0.947199 8.20426 1.11606 7.94258 1.35113 7.70683C 2.48935 6.56887 3.62598 5.42932 4.761 4.28817C 4.83632 4.21279 4.90492 4.13212 5.01622 4.01497C 3.46671 3.85316 2.06975 3.4724 0.874281 2.53611C 0.726047 2.41991 0.572535 2.30708 0.436773 2.17696C -0.0861259 1.67376 -0.138896 1.09806 0.275106 0.504121C 0.628663 -0.00387534 1.224 -0.140238 1.84188 0.151212C 1.96163 0.209119 2.07636 0.276893 2.18489 0.353835C 4.41321 1.88647 7.4748 1.9292 9.71176 0.423457C 9.9276 0.248274 10.1771 0.11933 10.4448 0.0446193C 10.9792 -0.0927031 11.4762 0.103197 11.7631 0.572782C 12.0926 1.10383 12.0893 1.62479 11.6844 2.03916Z"/>
<path id="path7_fill" d="M 17 1.60001C 16.4 1.90001 15.7 2.09999 15 2.19999C 15.7 1.79999 16.3 1.09999 16.5 0.299994C 15.8 0.699994 15.1 1.00001 14.3 1.10001C 13.7 0.400012 12.8 6.10352e-06 11.7 6.10352e-06C 9.8 6.10352e-06 8.2 1.60001 8.2 3.50001C 8.2 3.80001 8.19999 3.99999 8.29999 4.29999C 5.39999 4.19999 2.8 2.80001 1.1 0.600012C 0.799997 1.10001 0.599997 1.7 0.599997 2.4C 0.599997 3.6 1.2 4.69999 2.2 5.29999C 1.6 5.29999 1.1 5.1 0.599997 4.9C 0.599997 6.6 1.8 7.99999 3.4 8.29999C 3.1 8.39999 2.80001 8.4 2.50001 8.4C 2.30001 8.4 2.09999 8.39999 1.79999 8.29999C 2.19999 9.69999 3.5 10.7 5.1 10.7C 3.9 11.6 2.39999 12.2 0.799994 12.2C 0.499994 12.2 0.200006 12.2 6.10352e-06 12.2C 1.50001 13.2 3.4 13.8 5.4 13.8C 11.8 13.8 15.3 8.5 15.3 3.9C 15.3 3.7 15.3 3.6 15.3 3.4C 15.9 2.9 16.5 2.30001 17 1.60001Z"/>
<path id="path8_fill" d="M 20.5789 8.6029C 20.5793 8.60328 20.5797 8.60367 20.5801 8.60404C 21.372 9.37749 22.2097 10.1055 22.9207 10.9588C 22.9212 10.9594 22.9217 10.9599 22.9221 10.9605C 23.2368 11.3378 23.5335 11.7279 23.7593 12.1666C 23.7596 12.1671 23.7598 12.1675 23.76 12.168C 24.0627 12.7563 23.8238 13.3978 23.3291 13.5042C 23.2641 13.5181 23.197 13.5179 23.1305 13.5179L 19.8717 13.5172C 19.7889 13.5172 19.7061 13.5216 19.6234 13.5248C 18.7822 13.5574 18.1049 13.2007 17.5296 12.6148C 17.529 12.6142 17.5284 12.6136 17.5278 12.613C 17.0472 12.124 16.6012 11.6018 16.1383 11.0961C 16.1368 11.0944 16.1353 11.0927 16.1337 11.091C 15.9455 10.8847 15.7473 10.6905 15.5115 10.5373C 15.5097 10.5362 15.508 10.5351 15.5063 10.534C 15.0329 10.2273 14.6216 10.3222 14.3501 10.8165C 14.3498 10.8171 14.3494 10.8177 14.3491 10.8183C 14.0725 11.3224 14.0091 11.8808 13.9827 12.4418C 13.9827 12.4427 13.9826 12.4436 13.9826 12.4445C 13.9444 13.2646 13.6966 13.479 12.8731 13.5176C 12.8731 13.5176 12.873 13.5176 12.873 13.5176C 11.1124 13.6 9.4418 13.3329 7.88914 12.4453C 7.88909 12.4452 7.88904 12.4452 7.88899 12.4452C 6.51952 11.6624 5.45949 10.5576 4.53579 9.30671C 4.53548 9.3063 4.53518 9.30588 4.53487 9.30546C 2.73621 6.86677 1.35864 4.19024 0.120875 1.43686C 0.120774 1.43663 0.12067 1.4364 0.120569 1.43617C -0.157712 0.816438 0.0459255 0.48475 0.729399 0.471665C 0.729866 0.471656 0.730349 0.471647 0.730816 0.471638C 1.86722 0.44974 3.00362 0.452524 4.14002 0.470605C 4.14014 0.470607 4.14026 0.470609 4.14039 0.470611C 4.60258 0.477978 4.90851 0.742313 5.08628 1.17826C 5.08652 1.17883 5.08675 1.17942 5.08699 1.18C 5.70112 2.69083 6.45396 4.1283 7.3973 5.46149C 7.39749 5.46177 7.39769 5.46205 7.39789 5.46233C 7.64924 5.81727 7.90583 6.17112 8.27117 6.4218C 8.27127 6.42187 8.27139 6.42195 8.27149 6.42203C 8.67387 6.69805 8.98075 6.60771 9.17109 6.1603C 9.17205 6.15805 9.17303 6.15574 9.17398 6.1535C 9.29468 5.86825 9.34689 5.56342 9.37323 5.25789C 9.37324 5.25779 9.37325 5.25769 9.37326 5.25759C 9.46364 4.20727 9.47444 3.1573 9.31812 2.11115C 9.318 2.11032 9.31788 2.10949 9.31775 2.10866C 9.2201 1.45458 8.85197 1.03213 8.19981 0.908263C 8.19949 0.908203 8.19916 0.908139 8.19884 0.908079C 7.86812 0.845333 7.91522 0.722929 8.0754 0.534336C 8.07661 0.532914 8.07786 0.53145 8.07908 0.530032C 8.35904 0.202999 8.62195 0.000764434 9.14619 0.000695246C 9.14637 0.000695223 9.14655 0.000695213 9.14672 0.000695182L 12.7895 5.15786e-05C 12.9836 1.72739e-05 13.1816 0.00783458 13.3625 0.0782992C 13.6957 0.20807 13.821 0.434522 13.8938 0.826917C 13.9181 0.957873 13.9249 1.09151 13.925 1.2247L 13.9283 5.35106C 13.9284 5.38206 13.9275 5.41291 13.9285 5.4439C 13.9366 5.71021 14.0651 6.31942 14.4411 6.49628C 14.469 6.50941 14.4985 6.51961 14.5285 6.52685C 14.8509 6.60459 15.0693 6.34149 15.268 6.1311C 15.2688 6.13019 15.2697 6.12928 15.2705 6.12837C 16.2134 5.12739 16.8854 3.94616 17.4871 2.72357C 17.4873 2.72327 17.4874 2.72298 17.4875 2.72269C 17.7527 2.18425 17.9816 1.6271 18.2038 1.06888C 18.2045 1.06702 18.2053 1.06512 18.206 1.06326C 18.3692 0.657738 18.6213 0.455151 19.0739 0.455829C 19.0876 0.455849 19.1015 0.456008 19.1152 0.456024L 22.8821 0.460519C 22.8833 0.46052 22.8844 0.460521 22.8856 0.460521C 22.9958 0.460532 23.1076 0.461648 23.2167 0.480219C 23.2186 0.480534 23.2205 0.480862 23.2223 0.48118C 23.8584 0.590682 24.0326 0.865396 23.8357 1.48691C 23.8356 1.48739 23.8354 1.48789 23.8353 1.48837C 23.5243 2.46657 22.9205 3.28151 22.3302 4.09848C 22.3299 4.09891 22.3296 4.09935 22.3293 4.09978C 21.6971 4.97366 21.023 5.81704 20.397 6.69468C 20.3955 6.69672 20.394 6.69882 20.3926 6.70086C 19.8191 7.50204 19.8653 7.90642 20.5789 8.6029Z"/>
<path id="path9_stroke" d="M 11.0102 8.05968C 11.397 7.66556 11.3912 7.03242 10.997 6.64553C 10.6029 6.25865 9.96978 6.26452 9.58289 6.65865L 11.0102 8.05968ZM 9.03489 8.64442L 9.74467 9.34887L 9.74853 9.34494L 9.03489 8.64442ZM 1.57782 8.68863L 2.27721 7.97389L 2.27712 7.9738L 1.57782 8.68863ZM 1.51348 1.28527L 2.22317 1.9898L 2.2271 1.9858L 1.51348 1.28527ZM 3.48879 0.700548C 3.87569 0.306428 3.86983 -0.32671 3.47571 -0.713605C 3.08159 -1.1005 2.44845 -1.09464 2.06156 -0.700525L 3.48879 0.700548ZM 9.58289 6.65865L 8.32126 7.9439L 9.74853 9.34494L 11.0102 8.05968L 9.58289 6.65865ZM 8.32512 7.93999C 6.67268 9.60495 3.96355 9.62402 2.27721 7.97389L 0.878425 9.40337C 3.34665 11.8186 7.31442 11.7975 9.74466 9.34886L 8.32512 7.93999ZM 2.27712 7.9738C 0.594528 6.32775 0.572507 3.65251 2.22316 1.98979L 0.803802 0.58074C -1.63329 3.03565 -1.59347 6.98515 0.878513 9.40346L 2.27712 7.9738ZM 2.2271 1.9858L 3.48879 0.700548L 2.06156 -0.700525L 0.799862 0.584731L 2.2271 1.9858Z"/>
<path id="path10_stroke" d="M 6.80724 9.50015C 6.42034 9.89427 6.4262 10.5274 6.82032 10.9143C 7.21444 11.3012 7.84758 11.2953 8.23447 10.9012L 6.80724 9.50015ZM 8.78255 8.91543L 8.07277 8.21098L 8.06894 8.21489L 8.78255 8.91543ZM 8.71822 1.51203L 8.01883 2.22677L 8.01891 2.22686L 8.71822 1.51203ZM 1.26114 1.55676L 0.551366 0.852312L 0.547369 0.856385L 1.26114 1.55676ZM -0.71377 2.14164C -1.10058 2.53585 -1.09458 3.16898 -0.700377 3.55579C -0.306172 3.9426 0.326965 3.9366 0.713773 3.5424L -0.71377 2.14164ZM 8.23447 10.9012L 9.49617 9.61596L 8.06894 8.21489L 6.80724 9.50015L 8.23447 10.9012ZM 9.49232 9.61986C 11.9264 7.16735 11.8899 3.21588 9.41752 0.797208L 8.01891 2.22686C 9.70113 3.87254 9.72139 6.5499 8.07278 8.21099L 9.49232 9.61986ZM 9.41761 0.797293C 6.95013 -1.61719 2.98438 -1.59907 0.551377 0.852323L 1.9709 2.2612C 3.62564 0.59396 6.33274 0.576905 8.01883 2.22677L 9.41761 0.797293ZM 0.547369 0.856385L -0.71377 2.14164L 0.713773 3.5424L 1.97491 2.25714L 0.547369 0.856385Z"/>
<path id="path11_stroke" d="M 5.65154 0.70451C 6.04063 0.312559 6.03832 -0.320601 5.64637 -0.709694C 5.25441 -1.09879 4.62125 -1.09647 4.23216 -0.704518L 5.65154 0.70451ZM -0.709681 4.27363C -1.09877 4.66558 -1.09646 5.29874 -0.704505 5.68783C -0.312554 6.07693 0.320607 6.07461 0.709699 5.68266L -0.709681 4.27363ZM 4.23216 -0.704518L -0.709681 4.27363L 0.709699 5.68266L 5.65154 0.70451L 4.23216 -0.704518Z"/>
<path id="path12_fill" d="M 0 5.60001L 1.8 5.60001L 1.8 3.9C 1.8 3.1 1.79999 1.99999 2.39999 1.29999C 2.99999 0.499994 3.80001 6.10352e-06 5.10001 6.10352e-06C 7.30001 6.10352e-06 8.3 0.299994 8.3 0.299994L 7.89999 2.9C 7.89999 2.9 7.2 2.69999 6.5 2.69999C 5.8 2.69999 5.2 2.90001 5.2 3.60001L 5.2 5.60001L 8 5.60001L 7.8 8.10001L 5.2 8.10001L 5.2 16.9L 1.89999 16.9L 1.89999 8.10001L 0.100006 8.10001L 0.100006 5.60001L 0 5.60001Z"/>
<path id="path13_fill" d="M 33.7391 10.2103L 24.5031 0.324204C 23.8831 -0.339796 22.7431 0.0842335 22.7431 0.979233L 22.7431 4.46123C 22.7431 4.78323 22.4911 5.04821 22.1591 5.08421C 11.9951 6.19621 3.2991 12.9502 0.1021 22.5292C -0.5259 24.4112 1.89011 25.8402 3.32811 24.4322L 3.39214 24.3692C 8.32914 19.5372 15.0611 16.8182 22.0851 16.8182C 22.4481 16.8182 22.7431 17.1032 22.7431 17.4542L 22.7431 20.7512C 22.7431 21.6462 23.8831 22.0702 24.5031 21.4062L 33.7391 11.5202C 34.0871 11.1482 34.0871 10.5823 33.7391 10.2103Z"/>
</defs>
</svg>
