<svg width="11" height="8" viewBox="0 0 11 8" version="1.1" xmlns="http://www.w3.org/2000/svg" xmlns:xlink="http://www.w3.org/1999/xlink" xmlns:figma="http://www.figma.com/figma/ns">
    <title>Vector</title>
    <desc>Created using Figma</desc>
    <g id="Canvas" transform="translate(-1231 -351)" figma:type="canvas">
        <g id="Vector" style="mix-blend-mode:normal;" figma:type="vector">
            <use xlink:href="#path0_stroke" transform="translate(1232.83 352.5)" fill="#FFFFFF" style="mix-blend-mode:normal;"/>
        </g>
    </g>
    <defs>
        <path id="path0_stroke" d="M 0.716108 1.536C 0.330622 1.1405 -0.302491 1.13239 -0.69799 1.51787C -1.09349 1.90336 -1.1016 2.53647 -0.716118 2.93197L 0.716108 1.536ZM 2.69599 5.00001L 1.97988 5.69799C 2.36083 6.08883 2.9848 6.10204 3.38194 5.72766L 2.69599 5.00001ZM 8.68594 0.72766C 9.08781 0.348822 9.10648 -0.284068 8.72765 -0.685939C 8.34881 -1.08781 7.71592 -1.10648 7.31405 -0.727645L 8.68594 0.72766ZM -0.716118 2.93197L 1.97988 5.69799L 3.41211 4.30202L 0.716108 1.536L -0.716118 2.93197ZM 3.38194 5.72766L 8.68594 0.72766L 7.31405 -0.727645L 2.01005 4.27236L 3.38194 5.72766Z"/>
    </defs>
</svg>
