<svg width="738" height="276" viewBox="0 0 738 276" version="1.1" xmlns="http://www.w3.org/2000/svg" xmlns:xlink="http://www.w3.org/1999/xlink">
<title>uxc-controls</title>
<desc>Created using Figma</desc>
<g id="Canvas" transform="translate(-3354 -3796)">
<g id="uxc-controls">
<g id="Canvas">
<g id="mejs-controls">
<g id="Canvas">
<g id="mejs-controls">
<g id="controls">
<g id="play">
<g id="Play">
<g id="Vector">
<g id="Vector">
<use xlink:href="#path0_fill" transform="translate(3355.77 3799.88)" fill="#BDBDBD"/>
</g>
</g>
</g>
</g>
<g id="pause">
<g id="Vector">
<g id="Vector">
<g id="Vector">
<use xlink:href="#path1_fill" transform="translate(3379.17 3798.5)" fill="#BDBDBD"/>
</g>
</g>
</g>
<g id="Vector">
<g id="Vector">
<g id="Vector">
<use xlink:href="#path1_fill" transform="translate(3390.17 3798.5)" fill="#BDBDBD"/>
</g>
</g>
</g>
</g>
<g id="fullscreen">
<g id="Vector">
<g id="Vector">
<g id="Vector">
<use xlink:href="#path2_fill" transform="translate(3456.17 3798.5)" fill="#BDBDBD"/>
</g>
</g>
</g>
<g id="Vector">
<g id="Vector">
<g id="Vector">
<use xlink:href="#path3_fill" transform="translate(3456.17 3798.5)" fill="#BDBDBD"/>
</g>
</g>
</g>
<g id="Vector">
<g id="Vector">
<g id="Vector">
<use xlink:href="#path2_fill" transform="translate(3478.17 3798.5)" fill="#BDBDBD"/>
</g>
</g>
</g>
<g id="Vector">
<g id="Vector">
<g id="Vector">
<use xlink:href="#path4_fill" transform="translate(3471.17 3798.5)" fill="#BDBDBD"/>
</g>
</g>
</g>
<g id="Vector">
<g id="Vector">
<g id="Vector">
<use xlink:href="#path5_fill" transform="translate(3456.17 3813)" fill="#BDBDBD"/>
</g>
</g>
</g>
<g id="Vector">
<g id="Vector">
<g id="Vector">
<use xlink:href="#path3_fill" transform="translate(3456.17 3820)" fill="#BDBDBD"/>
</g>
</g>
</g>
<g id="Vector">
<g id="Vector">
<g id="Vector">
<use xlink:href="#path5_fill" transform="translate(3478.17 3813)" fill="#BDBDBD"/>
</g>
</g>
</g>
<g id="Vector">
<g id="Vector">
<g id="Vector">
<use xlink:href="#path4_fill" transform="translate(3471.17 3820)" fill="#BDBDBD"/>
</g>
</g>
</g>
</g>
<g id="fullscreen exit">
<g id="Vector">
<g id="Vector">
<g id="Vector">
<use xlink:href="#path6_fill" transform="matrix(-1 0 0 -1 3499.23 3808.4)" fill="#BDBDBD"/>
</g>
</g>
</g>
<g id="Vector">
<g id="Vector">
<g id="Vector">
<use xlink:href="#path7_fill" transform="matrix(-1 0 0 -1 3499.23 3808.4)" fill="#BDBDBD"/>
</g>
</g>
</g>
<g id="Vector">
<g id="Vector">
<g id="Vector">
<use xlink:href="#path6_fill" transform="matrix(-1 0 0 -1 3506.78 3808.4)" fill="#BDBDBD"/>
</g>
</g>
</g>
<g id="Vector">
<g id="Vector">
<g id="Vector">
<use xlink:href="#path8_fill" transform="matrix(-1 0 0 -1 3514.34 3808.4)" fill="#BDBDBD"/>
</g>
</g>
</g>
<g id="Vector">
<g id="Vector">
<g id="Vector">
<use xlink:href="#path9_fill" transform="matrix(-1 0 0 -1 3499.23 3823.51)" fill="#BDBDBD"/>
</g>
</g>
</g>
<g id="Vector">
<g id="Vector">
<g id="Vector">
<use xlink:href="#path7_fill" transform="matrix(-1 0 0 -1 3499.23 3815.96)" fill="#BDBDBD"/>
</g>
</g>
</g>
<g id="Vector">
<g id="Vector">
<g id="Vector">
<use xlink:href="#path9_fill" transform="matrix(-1 0 0 -1 3506.78 3823.51)" fill="#BDBDBD"/>
</g>
</g>
</g>
<g id="Vector">
<g id="Vector">
<g id="Vector">
<use xlink:href="#path8_fill" transform="matrix(-1 0 0 -1 3514.34 3815.96)" fill="#BDBDBD"/>
</g>
</g>
</g>
</g>
<g id="volume">
<g id="Vector">
<g id="Vector">
<g id="Vector">
<use xlink:href="#path10_fill" transform="translate(3420 3806.5)" fill="#BDBDBD"/>
</g>
</g>
<g id="Vector">
<g id="Vector">
<use xlink:href="#path11_fill" transform="translate(3419 3805.28)" fill="#BDBDBD"/>
</g>
</g>
</g>
<g id="Vector">
<g id="Vector">
<g id="Vector">
<use xlink:href="#path12_fill" transform="translate(3425 3800.5)" fill="#BDBDBD"/>
</g>
</g>
<g id="Vector">
<g id="Vector">
<use xlink:href="#path13_fill" transform="translate(3424 3799.5)" fill="#BDBDBD"/>
</g>
</g>
</g>
<g id="Ellipse 3">
<g id="Vector">
<g id="Vector">
<use xlink:href="#path14_fill" transform="translate(3439.36 3801.59)" fill="#BDBDBD"/>
</g>
</g>
</g>
<g id="Ellipse 3">
<g id="Vector">
<g id="Vector">
<use xlink:href="#path15_fill" transform="translate(3437.33 3805.26)" fill="#BDBDBD"/>
</g>
</g>
</g>
</g>
<g id="muted">
<g id="Vector">
<g id="Vector">
<g id="Vector">
<use xlink:href="#path10_fill" transform="translate(3401.65 3806.5)" fill="#BDBDBD"/>
</g>
</g>
<g id="Vector">
<g id="Vector">
<use xlink:href="#path11_fill" transform="translate(3400.65 3805.28)" fill="#BDBDBD"/>
</g>
</g>
</g>
<g id="Vector">
<g id="Vector">
<g id="Vector">
<use xlink:href="#path12_fill" transform="translate(3406.65 3800.5)" fill="#BDBDBD"/>
</g>
</g>
<g id="Vector">
<g id="Vector">
<use xlink:href="#path13_fill" transform="translate(3405.65 3799.5)" fill="#BDBDBD"/>
</g>
</g>
</g>
</g>
<g id="15 sec back">
<g id="figure">
<g id="Vector">
<g id="Vector">
<g id="Vector">
<use xlink:href="#path16_fill" transform="translate(3521.44 3796)" fill="#BDBDBD"/>
</g>
</g>
</g>
<g id="Vector">
<g id="Vector">
<g id="Vector">
<use xlink:href="#path17_fill" transform="matrix(0.175853 -0.984416 0.985189 0.171469 3515.81 3811.12)" fill="#BDBDBD"/>
</g>
</g>
</g>
</g>
<g id="15">
<g id="Vector">
<g id="Vector">
<use xlink:href="#path18_fill" transform="translate(3529.53 3805.51)" fill="#BDBDBD"/>
</g>
</g>
</g>
</g>
<g id="15 sec back">
<g id="figure">
<g id="Vector">
<g id="Vector">
<g id="Vector">
<use xlink:href="#path16_fill" transform="matrix(-1 0 0 1 3643.61 3796)" fill="#BDBDBD"/>
</g>
</g>
</g>
<g id="Vector">
<g id="Vector">
<g id="Vector">
<use xlink:href="#path17_fill" transform="matrix(-0.175853 -0.984416 -0.985189 0.171469 3649.24 3811.12)" fill="#BDBDBD"/>
</g>
</g>
</g>
</g>
<g id="15">
<g id="Vector">
<g id="Vector">
<use xlink:href="#path18_fill" transform="translate(3622.72 3805.51)" fill="#BDBDBD"/>
</g>
</g>
</g>
</g>
<g id="plus">
<g id="Vector">
<mask id="mask0_alpha" mask-type="alpha">
<g id="mask0_alpha">
<g id="mask0 outline ins">
<g id="Vector">
<g id="Vector">
<use xlink:href="#path19_fill" transform="translate(3557.92 3797.5)" fill="#FFFFFF"/>
</g>
</g>
</g>
</g>
</mask>
<g id="Group" mask="url(#mask0_alpha)">
<g id="Vector">
<g id="Vector">
<use xlink:href="#path20_fill" transform="translate(3554.92 3794.5)" fill="#BDBDBD"/>
</g>
</g>
</g>
</g>
<g id="Vector">
<g id="Vector">
<g id="Vector">
<use xlink:href="#path21_fill" transform="translate(3569.92 3803.5)" fill="#BDBDBD"/>
</g>
</g>
</g>
<g id="Vector">
<g id="Vector">
<g id="Vector">
<use xlink:href="#path22_fill" transform="translate(3563.92 3809.5)" fill="#BDBDBD"/>
</g>
</g>
</g>
</g>
</g>
<g id="controls">
<g id="play">
<g id="Play">
<g id="Vector">
<g id="Vector">
<use xlink:href="#path0_fill" transform="translate(3822.57 3799.88)" fill="#FFFFFF"/>
</g>
</g>
</g>
</g>
<g id="pause">
<g id="Vector">
<g id="Vector">
<g id="Vector">
<use xlink:href="#path1_fill" transform="translate(3845.97 3798.5)" fill="#FFFFFF"/>
</g>
</g>
</g>
<g id="Vector">
<g id="Vector">
<g id="Vector">
<use xlink:href="#path1_fill" transform="translate(3856.97 3798.5)" fill="#FFFFFF"/>
</g>
</g>
</g>
</g>
<g id="fullscreen">
<g id="Vector">
<g id="Vector">
<g id="Vector">
<use xlink:href="#path2_fill" transform="translate(3922.97 3798.5)" fill="#FFFFFF"/>
</g>
</g>
</g>
<g id="Vector">
<g id="Vector">
<g id="Vector">
<use xlink:href="#path3_fill" transform="translate(3922.97 3798.5)" fill="#FFFFFF"/>
</g>
</g>
</g>
<g id="Vector">
<g id="Vector">
<g id="Vector">
<use xlink:href="#path2_fill" transform="translate(3944.97 3798.5)" fill="#FFFFFF"/>
</g>
</g>
</g>
<g id="Vector">
<g id="Vector">
<g id="Vector">
<use xlink:href="#path4_fill" transform="translate(3937.97 3798.5)" fill="#FFFFFF"/>
</g>
</g>
</g>
<g id="Vector">
<g id="Vector">
<g id="Vector">
<use xlink:href="#path5_fill" transform="translate(3922.97 3813)" fill="#FFFFFF"/>
</g>
</g>
</g>
<g id="Vector">
<g id="Vector">
<g id="Vector">
<use xlink:href="#path3_fill" transform="translate(3922.97 3820)" fill="#FFFFFF"/>
</g>
</g>
</g>
<g id="Vector">
<g id="Vector">
<g id="Vector">
<use xlink:href="#path5_fill" transform="translate(3944.97 3813)" fill="#FFFFFF"/>
</g>
</g>
</g>
<g id="Vector">
<g id="Vector">
<g id="Vector">
<use xlink:href="#path4_fill" transform="translate(3937.97 3820)" fill="#FFFFFF"/>
</g>
</g>
</g>
</g>
<g id="fullscreen exit">
<g id="Vector">
<g id="Vector">
<g id="Vector">
<use xlink:href="#path6_fill" transform="matrix(-1 0 0 -1 3966.02 3808.4)" fill="#FFFFFF"/>
</g>
</g>
</g>
<g id="Vector">
<g id="Vector">
<g id="Vector">
<use xlink:href="#path7_fill" transform="matrix(-1 0 0 -1 3966.02 3808.4)" fill="#FFFFFF"/>
</g>
</g>
</g>
<g id="Vector">
<g id="Vector">
<g id="Vector">
<use xlink:href="#path6_fill" transform="matrix(-1 0 0 -1 3973.58 3808.4)" fill="#FFFFFF"/>
</g>
</g>
</g>
<g id="Vector">
<g id="Vector">
<g id="Vector">
<use xlink:href="#path8_fill" transform="matrix(-1 0 0 -1 3981.14 3808.4)" fill="#FFFFFF"/>
</g>
</g>
</g>
<g id="Vector">
<g id="Vector">
<g id="Vector">
<use xlink:href="#path9_fill" transform="matrix(-1 0 0 -1 3966.02 3823.51)" fill="#FFFFFF"/>
</g>
</g>
</g>
<g id="Vector">
<g id="Vector">
<g id="Vector">
<use xlink:href="#path7_fill" transform="matrix(-1 0 0 -1 3966.02 3815.96)" fill="#FFFFFF"/>
</g>
</g>
</g>
<g id="Vector">
<g id="Vector">
<g id="Vector">
<use xlink:href="#path9_fill" transform="matrix(-1 0 0 -1 3973.58 3823.51)" fill="#FFFFFF"/>
</g>
</g>
</g>
<g id="Vector">
<g id="Vector">
<g id="Vector">
<use xlink:href="#path8_fill" transform="matrix(-1 0 0 -1 3981.14 3815.96)" fill="#FFFFFF"/>
</g>
</g>
</g>
</g>
<g id="volume">
<g id="Vector">
<g id="Vector">
<g id="Vector">
<use xlink:href="#path10_fill" transform="translate(3886.8 3806.5)" fill="#FFFFFF"/>
</g>
</g>
<g id="Vector">
<g id="Vector">
<use xlink:href="#path11_fill" transform="translate(3885.8 3805.28)" fill="#FFFFFF"/>
</g>
</g>
</g>
<g id="Vector">
<g id="Vector">
<g id="Vector">
<use xlink:href="#path12_fill" transform="translate(3891.8 3800.5)" fill="#FFFFFF"/>
</g>
</g>
<g id="Vector">
<g id="Vector">
<use xlink:href="#path13_fill" transform="translate(3890.8 3799.5)" fill="#FFFFFF"/>
</g>
</g>
</g>
<g id="Ellipse 3">
<g id="Vector">
<g id="Vector">
<use xlink:href="#path14_fill" transform="translate(3906.16 3801.59)" fill="#FFFFFF"/>
</g>
</g>
</g>
<g id="Ellipse 3">
<g id="Vector">
<g id="Vector">
<use xlink:href="#path15_fill" transform="translate(3904.13 3805.26)" fill="#FFFFFF"/>
</g>
</g>
</g>
</g>
<g id="muted">
<g id="Vector">
<g id="Vector">
<g id="Vector">
<use xlink:href="#path10_fill" transform="translate(3868.45 3806.5)" fill="#FFFFFF"/>
</g>
</g>
<g id="Vector">
<g id="Vector">
<use xlink:href="#path11_fill" transform="translate(3867.45 3805.28)" fill="#FFFFFF"/>
</g>
</g>
</g>
<g id="Vector">
<g id="Vector">
<g id="Vector">
<use xlink:href="#path12_fill" transform="translate(3873.45 3800.5)" fill="#FFFFFF"/>
</g>
</g>
<g id="Vector">
<g id="Vector">
<use xlink:href="#path13_fill" transform="translate(3872.45 3799.5)" fill="#FFFFFF"/>
</g>
</g>
</g>
</g>
<g id="15 sec back">
<g id="figure">
<g id="Vector">
<g id="Vector">
<g id="Vector">
<use xlink:href="#path16_fill" transform="translate(3988.24 3796)" fill="#FFFFFF"/>
</g>
</g>
</g>
<g id="Vector">
<g id="Vector">
<g id="Vector">
<use xlink:href="#path17_fill" transform="matrix(0.175853 -0.984416 0.985189 0.171469 3982.6 3811.12)" fill="#FFFFFF"/>
</g>
</g>
</g>
</g>
<g id="15">
<g id="Vector">
<g id="Vector">
<use xlink:href="#path18_fill" transform="translate(3996.32 3805.51)" fill="#FFFFFF"/>
</g>
</g>
</g>
</g>
<g id="15 sec back">
<g id="figure">
<g id="Vector">
<g id="Vector">
<g id="Vector">
<use xlink:href="#path16_fill" transform="matrix(-1 0 0 1 4087.21 3796)" fill="#FFFFFF"/>
</g>
</g>
</g>
<g id="Vector">
<g id="Vector">
<g id="Vector">
<use xlink:href="#path17_fill" transform="matrix(-0.175853 -0.984416 -0.985189 0.171469 4092.85 3811.12)" fill="#FFFFFF"/>
</g>
</g>
</g>
</g>
<g id="15">
<g id="Vector">
<g id="Vector">
<use xlink:href="#path18_fill" transform="translate(4066.33 3805.51)" fill="#FFFFFF"/>
</g>
</g>
</g>
</g>
<g id="plus">
<g id="Vector">
<mask id="mask1_alpha" mask-type="alpha">
<g id="mask1_alpha">
<g id="mask2 outline ins">
<g id="Vector">
<g id="Vector">
<use xlink:href="#path19_fill" transform="translate(4024.72 3797.5)" fill="#FFFFFF"/>
</g>
</g>
</g>
</g>
</mask>
<g id="Group" mask="url(#mask1_alpha)">
<g id="Vector">
<g id="Vector">
<use xlink:href="#path20_fill" transform="translate(4021.72 3794.5)" fill="#FFFFFF"/>
</g>
</g>
</g>
</g>
<g id="Vector">
<g id="Vector">
<g id="Vector">
<use xlink:href="#path21_fill" transform="translate(4036.72 3803.5)" fill="#FFFFFF"/>
</g>
</g>
</g>
<g id="Vector">
<g id="Vector">
<g id="Vector">
<use xlink:href="#path22_fill" transform="translate(4030.72 3809.5)" fill="#FFFFFF"/>
</g>
</g>
</g>
</g>
<g id="scissors">
<g id="Vector">
<g id="Vector">
<use xlink:href="#path23_fill" transform="translate(3794 3798)" fill="#FFFFFF"/>
</g>
</g>
</g>
<g id="scissors">
<g id="Vector">
<g id="Vector">
<use xlink:href="#path23_fill" transform="translate(3587 3798)" fill="#BDBDBD"/>
</g>
</g>
</g>
</g>
<g id="big spinner">
<g id="spinner">
<g id="Vector">
<g id="Vector">
<use xlink:href="#path24_fill" transform="translate(3612 3857)" fill="#FFFFFF"/>
</g>
</g>
</g>
</g>
<g id="big pause">
<g id="Rectangle 5" opacity="0.6">
<g id="Vector" opacity="0.6">
<g id="Vector" opacity="0.6">
<use xlink:href="#path25_fill" transform="translate(3354 3971.5)" fill="#FFFFFF"/>
</g>
</g>
</g>
<g id="Rectangle 5" opacity="0.6">
<g id="Vector" opacity="0.6">
<g id="Vector" opacity="0.6">
<use xlink:href="#path25_fill" transform="translate(3402.5 3971.5)" fill="#FFFFFF"/>
</g>
</g>
</g>
</g>
<g id="big pause">
<g id="Rectangle 5">
<g id="Vector">
<g id="Vector">
<use xlink:href="#path25_fill" transform="translate(3473.17 3971.5)" fill="#FFFFFF"/>
</g>
</g>
</g>
<g id="Rectangle 5">
<g id="Vector">
<g id="Vector">
<use xlink:href="#path25_fill" transform="translate(3521.67 3971.5)" fill="#FFFFFF"/>
</g>
</g>
</g>
</g>
<g id="big play">
<g id="Play">
<g id="Vector">
<g id="Vector">
<use xlink:href="#path26_fill" transform="translate(3486 3849)" fill="#FFFFFF"/>
</g>
</g>
</g>
</g>
<g id="big play">
<g id="Play" opacity="0.6">
<g id="Vector" opacity="0.6">
<g id="Vector" opacity="0.6">
<use xlink:href="#path26_fill" transform="translate(3356 3849)" fill="#FFFFFF"/>
</g>
</g>
</g>
</g>
</g>
</g>
</g>
</g>
</g>
</g>
<defs>
<path id="path0_fill" d="M 0 2.00285C 0 0.481646 1.63093 -0.482681 2.96384 0.250416L 18.9638 9.05041C 19.6029 9.40191 20 10.0735 20 10.8028L 20 11.4378C 20 12.1671 19.6029 12.8387 18.9638 13.1902L 2.96384 21.9902C 1.63093 22.7233 0 21.759 0 20.2378L 0 2.00285Z"/>
<path id="path1_fill" d="M 6 23L 6 2C 6 0.895431 5.10457 0 4 0L 2 0C 0.895431 0 0 0.895431 0 2L 0 23C 0 24.1046 0.895398 25 1.99997 25L 4.00069 25C 5.10526 25 6 24.1046 6 23Z"/>
<path id="path2_fill" d="M 0 8.5C 0 9.32843 0.671573 10 1.5 10C 2.32843 10 3 9.32843 3 8.5L 0 8.5ZM 3 1.5C 3 0.671573 2.32843 0 1.5 0C 0.671573 0 0 0.671573 0 1.5L 3 1.5ZM 3 8.5L 3 1.5L 0 1.5L 0 8.5L 3 8.5Z"/>
<path id="path3_fill" d="M 8.5 3C 9.32843 3 10 2.32843 10 1.5C 10 0.671573 9.32843 0 8.5 0L 8.5 3ZM 1.5 0C 0.671573 0 0 0.671573 0 1.5C 0 2.32843 0.671573 3 1.5 3L 1.5 0ZM 8.5 0L 1.5 0L 1.5 3L 8.5 3L 8.5 0Z"/>
<path id="path4_fill" d="M 1.5 0C 0.671573 0 0 0.671573 0 1.5C 0 2.32843 0.671573 3 1.5 3L 1.5 0ZM 8.5 3C 9.32843 3 10 2.32843 10 1.5C 10 0.671573 9.32843 0 8.5 0L 8.5 3ZM 1.5 3L 8.5 3L 8.5 0L 1.5 0L 1.5 3Z"/>
<path id="path5_fill" d="M 3 1.5C 3 0.671573 2.32843 0 1.5 0C 0.671573 0 0 0.671573 0 1.5L 3 1.5ZM 0 8.5C 0 9.32843 0.671573 10 1.5 10C 2.32843 10 3 9.32843 3 8.5L 0 8.5ZM 0 1.5L 0 8.5L 3 8.5L 3 1.5L 0 1.5Z"/>
<path id="path6_fill" d="M 0 9.05815C 0 9.88658 0.671573 10.5582 1.5 10.5582C 2.32843 10.5582 3 9.88658 3 9.05815L 0 9.05815ZM 3 1.5C 3 0.671577 2.32843 8.79483e-16 1.5 8.79483e-16C 0.671573 8.79483e-16 0 0.671577 0 1.5L 3 1.5ZM 3 9.05815L 3 1.5L 0 1.5L 0 9.05815L 3 9.05815Z"/>
<path id="path7_fill" d="M 9.05815 3C 9.88657 3 10.5582 2.32843 10.5582 1.5C 10.5582 0.671575 9.88657 1.23495e-15 9.05815 1.23495e-15L 9.05815 3ZM 1.5 1.23495e-15C 0.671573 1.23495e-15 0 0.671575 0 1.5C 0 2.32843 0.671573 3 1.5 3L 1.5 1.23495e-15ZM 9.05815 1.23495e-15L 1.5 1.23495e-15L 1.5 3L 9.05815 3L 9.05815 1.23495e-15Z"/>
<path id="path8_fill" d="M 1.5 1.23495e-15C 0.671573 1.23495e-15 0 0.671575 0 1.5C 0 2.32843 0.671573 3 1.5 3L 1.5 1.23495e-15ZM 9.05815 3C 9.88657 3 10.5582 2.32843 10.5582 1.5C 10.5582 0.671575 9.88657 1.23495e-15 9.05815 1.23495e-15L 9.05815 3ZM 1.5 3L 9.05815 3L 9.05815 1.23495e-15L 1.5 1.23495e-15L 1.5 3Z"/>
<path id="path9_fill" d="M 3 1.5C 3 0.671577 2.32843 8.79483e-16 1.5 8.79483e-16C 0.671573 8.79483e-16 0 0.671577 0 1.5L 3 1.5ZM 0 9.05815C 0 9.88658 0.671573 10.5582 1.5 10.5582C 2.32843 10.5582 3 9.88658 3 9.05815L 0 9.05815ZM 0 1.5L 0 9.05815L 3 9.05815L 3 1.5L 0 1.5Z"/>
<path id="path10_fill" d="M 5 10L 0.803884 9.16078C 0.33646 9.06729 0 8.65688 0 8.1802L 0 1.8198C 0 1.34312 0.33646 0.932708 0.803884 0.839223L 5 0L 5 10Z"/>
<path id="path11_fill" d="M 6 11.2198L 5.80388 12.2004L 7 12.4396L 7 11.2198L 6 11.2198ZM 1.80388 10.3806L 2 9.4L 1.80388 10.3806ZM 1.80388 2.05902L 1.60777 1.07844L 1.80388 2.05902ZM 6 1.2198L 7 1.2198L 7 4.48005e-17L 5.80388 0.239219L 6 1.2198ZM 6.19612 10.2392L 2 9.4L 1.60777 11.3612L 5.80388 12.2004L 6.19612 10.2392ZM 2 3.0396L 6.19612 2.20038L 5.80388 0.239219L 1.60777 1.07844L 2 3.0396ZM 2 9.4L 2 3.0396L 0 3.0396L 0 9.4L 2 9.4ZM 5 1.2198L 5 11.2198L 7 11.2198L 7 1.2198L 5 1.2198ZM 2 9.4L 0 9.4C 0 10.3534 0.672919 11.1742 1.60777 11.3612L 2 9.4ZM 1.60777 1.07844C 0.672919 1.26541 0 2.08624 0 3.0396L 2 3.0396L 1.60777 1.07844Z"/>
<path id="path12_fill" d="M 0 6L 7 0L 7 22L 0 16"/>
<path id="path13_fill" d="M 0.349229 6.24076C -0.0701007 6.60018 -0.11866 7.23149 0.240763 7.65081C 0.600186 8.07014 1.23149 8.1187 1.65081 7.75928L 0.349229 6.24076ZM 8.00002 1.00002L 9.00002 1.00002C 9.00002 0.609485 8.77268 0.254688 8.41788 0.0915022C 8.06308 -0.0716848 7.64574 -0.0133948 7.34923 0.240758L 8.00002 1.00002ZM 8.00002 23L 7.34923 23.7593C 7.64574 24.0134 8.06308 24.0717 8.41788 23.9085C 8.77268 23.7453 9.00002 23.3905 9.00002 23L 8.00002 23ZM 1.65081 16.2407C 1.23149 15.8813 0.600186 15.9299 0.240763 16.3492C -0.11866 16.7685 -0.0701007 17.3998 0.349229 17.7593L 1.65081 16.2407ZM 1.65081 7.75928L 8.65081 1.75927L 7.34923 0.240758L 0.349229 6.24076L 1.65081 7.75928ZM 7.00002 1.00002L 7.00002 23L 9.00002 23L 9.00002 1.00002L 7.00002 1.00002ZM 8.65081 22.2407L 1.65081 16.2407L 0.349229 17.7593L 7.34923 23.7593L 8.65081 22.2407Z"/>
<path id="path14_fill" d="M 1 17.8095C 0.447715 17.8095 0 18.2573 0 18.8095C 0 19.3618 0.447715 19.8095 1 19.8095L 1 17.8095ZM 1 0C 0.447715 0 0 0.447715 0 1C 0 1.55228 0.447715 2 1 2L 1 0ZM 7.63636 9.90477C 7.65312 11.8922 6.91727 13.7978 5.62673 15.35C 4.37987 16.8692 2.73238 17.8095 1 17.8095L 1 19.8095C 3.48507 19.8095 5.65576 18.4672 7.17272 16.6188C 8.646 14.8035 9.61961 12.2567 9.63636 9.90477L 7.63636 9.90477ZM 1 2C 2.73238 2 4.37987 2.94031 5.62673 4.45953C 6.91727 6.01176 7.65312 7.91735 7.63636 9.90477L 9.63636 9.90477C 9.61961 7.55281 8.646 5.00601 7.17272 3.1907C 5.65576 1.34238 3.48507 0 1 0L 1 2Z"/>
<path id="path15_fill" d="M 1 10.4762C 0.447715 10.4762 0 10.9239 0 11.4762C 0 12.0285 0.447715 12.4762 1 12.4762L 1 10.4762ZM 1 0C 0.447715 0 0 0.447715 0 1C 0 1.55228 0.447715 2 1 2L 1 0ZM 5.09091 6.2381C 5.09091 8.6058 3.23267 10.4762 1 10.4762L 1 12.4762C 4.39059 12.4762 7.09091 9.65625 7.09091 6.2381L 5.09091 6.2381ZM 1 2C 3.23267 2 5.09091 3.8704 5.09091 6.2381L 7.09091 6.2381C 7.09091 2.81995 4.39059 0 1 0L 1 2Z"/>
<path id="path16_fill" d="M 14.4435 25C 13.6151 25 12.9435 25.6716 12.9435 26.5C 12.9435 27.3284 13.6151 28 14.4435 28L 14.4435 25ZM 0 14.8341C 0 15.6625 0.671573 16.3341 1.5 16.3341C 2.32843 16.3341 3 15.6625 3 14.8341L 0 14.8341ZM 25.6073 14C 25.6073 20.0568 20.6276 25 14.4435 25L 14.4435 28C 22.2475 28 28.6073 21.7503 28.6073 14L 25.6073 14ZM 3 14.8341C 3 8.69447 8.34101 3 14.4435 3L 14.4435 0C 6.5581 0 0 7.16655 0 14.8341L 3 14.8341ZM 14.4435 3C 20.6276 3 25.6073 7.94321 25.6073 14L 28.6073 14C 28.6073 6.24967 22.2475 0 14.4435 0L 14.4435 3Z"/>
<path id="path17_fill" d="M 0.671818 5.72345C -0.0188355 6.18093 -0.207855 7.11168 0.249625 7.80233C 0.707112 8.49298 1.63786 8.682 2.32851 8.22452L 0.671818 5.72345ZM 10.5922 2.7507C 11.2829 2.29322 11.4719 1.36247 11.0144 0.671817C 10.5569 -0.0188378 9.62617 -0.207858 8.93552 0.249632L 10.5922 2.7507ZM 2.32851 8.22452L 10.5922 2.7507L 8.93552 0.249632L 0.671818 5.72345L 2.32851 8.22452Z"/>
<path id="path18_fill" d="M 3.97363 9.28027L 2.48193 9.28027L 2.48193 3.28808C 2.48193 2.57291 2.49886 2.00586 2.53271 1.58691C 2.43538 1.68847 2.31478 1.80061 2.1709 1.92334C 2.03125 2.04606 1.55729 2.43538 0.749021 3.09131L -4.82066e-17 2.1455L 2.72949 1.88987e-15L 3.97363 1.88987e-15L 3.97363 9.28027ZM 8.86894 3.48486C 9.80416 3.48486 10.5448 3.73242 11.0907 4.22754C 11.6366 4.72265 11.9095 5.39767 11.9095 6.25247C 11.9095 7.24267 11.5985 8.01707 10.9764 8.57567C 10.3586 9.13007 9.47836 9.40727 8.33574 9.40727C 7.29896 9.40727 6.48434 9.24007 5.89189 8.90577L 5.89189 7.55367C 6.23467 7.74837 6.62822 7.89857 7.07256 8.00437C 7.51689 8.11017 7.92949 8.16307 8.31035 8.16307C 8.9832 8.16307 9.49526 8.01287 9.84646 7.71237C 10.1978 7.41197 10.3734 6.97187 10.3734 6.39207C 10.3734 5.28337 9.66666 4.729 8.25322 4.729C 8.05433 4.729 7.80889 4.75016 7.51689 4.79248C 7.2249 4.83056 6.96888 4.875 6.74883 4.92578L 6.08232 4.53222L 6.43779 1.88987e-15L 11.2621 1.88987e-15L 11.2621 1.32666L 7.75176 1.32666L 7.54228 3.62451C 7.6904 3.59912 7.87025 3.5695 8.08183 3.53564C 8.29766 3.50179 8.56002 3.48486 8.86894 3.48486Z"/>
<path id="path19_fill" d="M 26 22C 26 24.2091 24.2091 26 22 26L 4 26C 1.79086 26 0 24.2091 0 22L 0 4C 0 1.79086 1.79086 0 4 0L 22 0C 24.2091 0 26 1.79086 26 4L 26 22Z"/>
<path id="path20_fill" d="M 6 25L 6 7L 0 7L 0 25L 6 25ZM 26 7L 26 25L 32 25L 32 7L 26 7ZM 25 26L 7 26L 7 32L 25 32L 25 26ZM 7 6L 25 6L 25 0L 7 0L 7 6ZM 26 25C 26 25.5523 25.5523 26 25 26L 25 32C 28.866 32 32 28.866 32 25L 26 25ZM 0 25C 0 28.866 3.13401 32 7 32L 7 26C 6.44772 26 6 25.5523 6 25L 0 25ZM 6 7C 6 6.44772 6.44772 6 7 6L 7 0C 3.13401 0 0 3.13401 0 7L 6 7ZM 32 7C 32 3.13401 28.866 0 25 0L 25 6C 25.5523 6 26 6.44772 26 7L 32 7Z"/>
<path id="path21_fill" d="M 0 13C 0 13.5523 0.447715 14 1 14C 1.55228 14 2 13.5523 2 13L 0 13ZM 2 0.999996C 2 0.447711 1.55228 -4.39742e-16 1 -4.39742e-16C 0.447715 -4.39742e-16 0 0.447711 0 0.999996L 2 0.999996ZM 0 7.18181C 0 7.7341 0.447715 8.18181 1 8.18181C 1.55228 8.18181 2 7.7341 2 7.18181L 0 7.18181ZM 2 13L 2 0.999996L 0 0.999996L 0 13L 2 13ZM 0 0.999996L 0 7.18181L 2 7.18181L 2 0.999996L 0 0.999996Z"/>
<path id="path22_fill" d="M 1 0C 0.447715 0 0 0.447715 0 1C 0 1.55228 0.447715 2 1 2L 1 0ZM 13 2C 13.5523 2 14 1.55228 14 1C 14 0.447715 13.5523 0 13 0L 13 2ZM 7.00003 0C 6.44775 0 6.00003 0.447715 6.00003 1C 6.00003 1.55228 6.44775 2 7.00003 2L 7.00003 0ZM 1 2L 13 2L 13 0L 1 0L 1 2ZM 13 0L 7.00003 0L 7.00003 2L 13 2L 13 0Z"/>
<path id="path23_fill" d="M 15.6546 0.0033665C 12.7334 0.295316 12.5033 3.48681 12.4649 3.661L 11.1773 11.8273C 10.4019 12.0015 7.978 12.5467 7.19624 12.7908C 7.12691 12.8125 7.06888 12.8286 7.0185 12.8406C 6.81646 11.0867 5.32467 9.72031 3.52089 9.72031C 1.57953 9.72031 0 11.3027 0 13.2476C 0 15.1925 1.57953 16.7748 3.52089 16.7748L 3.78221 16.7748C 3.80496 16.7748 3.82822 16.7759 3.85097 16.7759C 4.72632 16.7759 5.46399 16.4756 6.31496 16.1304C 7.45085 15.6692 8.73776 15.1469 10.8335 15.1469C 10.8971 15.1469 10.9556 15.131 11.0123 15.1108C 11.1309 16.7882 10.2584 18.2217 9.82421 19.504C 9.50787 20.4379 9.20848 21.3212 9.20848 22.2014L 9.20848 22.4727C 9.20848 24.4176 10.788 26 12.7294 26C 14.6707 26 16.2503 24.4176 16.2503 22.4727C 16.2503 20.6027 14.79 19.0679 12.9515 18.9529L 14.1851 14.8173C 14.1927 14.7917 14.1983 14.7654 14.202 14.7388L 16.2439 0.620214C 16.2683 0.454704 16.2154 0.28866 16.1 0.167647C 15.9852 0.0466349 15.8193 -0.0156265 15.6546 0.0033665ZM 25.5053 9.72243C 25.4645 9.71893 25.4231 9.7195 25.3815 9.72561L 15.8239 11.0928L 15.2748 14.5862C 15.264 14.6633 15.2468 14.739 15.223 14.8204L 22.3282 13.7415C 22.4664 13.71 25.7058 13.2441 25.9972 10.316C 26.014 10.1504 25.9535 9.9864 25.8333 9.87081C 25.7431 9.78453 25.6275 9.73293 25.5053 9.72243ZM 3.52089 11.3483C 4.56632 11.3483 5.41675 12.2002 5.41675 13.2476C 5.41675 14.2949 4.56632 15.1469 3.52089 15.1469C 2.47546 15.1469 1.62503 14.2949 1.62503 13.2476C 1.62503 12.2002 2.47546 11.3483 3.52089 11.3483ZM 12.4585 12.4336C 12.7575 12.4336 13.0002 12.6767 13.0002 12.9762C 13.0002 13.2758 12.7575 13.5189 12.4585 13.5189C 12.1595 13.5189 11.9169 13.2758 11.9169 12.9762C 11.9169 12.6767 12.1595 12.4336 12.4585 12.4336ZM 12.7294 20.5734C 13.7748 20.5734 14.6252 21.4254 14.6252 22.4727C 14.6252 23.5201 13.7748 24.372 12.7294 24.372C 11.6839 24.372 10.8335 23.5201 10.8335 22.4727C 10.8335 21.4254 11.6839 20.5734 12.7294 20.5734Z"/>
<path id="path24_fill" d="M 81 40.5C 81 38.8431 79.6569 37.5 78 37.5C 76.3431 37.5 75 38.8431 75 40.5L 81 40.5ZM 40.5 6C 42.1569 6 43.5 4.65685 43.5 3C 43.5 1.34315 42.1569 0 40.5 0L 40.5 6ZM 75 40.5C 75 59.5538 59.5538 75 40.5 75L 40.5 81C 62.8675 81 81 62.8675 81 40.5L 75 40.5ZM 40.5 75C 21.4462 75 6 59.5538 6 40.5L 0 40.5C 0 62.8675 18.1325 81 40.5 81L 40.5 75ZM 6 40.5C 6 21.4462 21.4462 6 40.5 6L 40.5 0C 18.1325 0 0 18.1325 0 40.5L 6 40.5Z"/>
<path id="path25_fill" d="M 0 10C 0 4.47715 4.47715 0 10 0C 15.5228 0 20 4.47715 20 10L 20 90C 20 95.5229 15.5228 100 10 100C 4.47715 100 0 95.5229 0 90L 0 10Z"/>
<path id="path26_fill" d="M 0 10.0142C 0 2.40822 8.15466 -2.4134 14.8192 1.25209L 74.8192 34.2521C 78.0147 36.0096 80 39.3673 80 43.0142L 80 43.1888C 80 46.8357 78.0147 50.1934 74.8192 51.9509L 14.8192 84.9509C 8.15466 88.6164 0 83.7948 0 76.1888L 0 10.0142Z"/>
</defs>
</svg>
