<svg width="30" height="30" viewBox="0 0 30 30" version="1.1" xmlns="http://www.w3.org/2000/svg" xmlns:xlink="http://www.w3.org/1999/xlink">
<title>done</title>
<desc>Created using Figma</desc>
<g id="Canvas" transform="translate(-4330 -2348)">
<g id="done">
<g id="Vector">
<use xlink:href="#path0_fill" transform="translate(4330 2348)" fill="#999999"/>
</g>
<g id="Vector">
<use xlink:href="#path1_fill" transform="translate(4338.29 2353.99)" fill="#999999"/>
</g>
</g>
</g>
<defs>
<path id="path0_fill" d="M 28.6554 14.9959C 27.828 14.9021 27.0947 15.5023 27.0007 16.3275C 26.6999 19.0658 25.4965 21.5414 23.541 23.4732C 21.2847 25.7426 18.2574 26.9992 15.0422 26.9992C 11.8269 26.9992 8.79965 25.7426 6.52453 23.492C 1.82385 18.8032 1.82385 11.1886 6.52453 6.51861C 10.1911 2.88012 15.7567 1.96112 20.3822 4.24924C 21.1343 4.62434 22.0368 4.30551 22.394 3.57406C 22.7701 2.82386 22.4504 1.92361 21.7171 1.56726C 15.9259 -1.30227 8.96892 -0.1582 4.39986 4.39929C -1.46659 10.2509 -1.46659 19.7597 4.39986 25.6113C 7.23907 28.4433 11.0184 30 15.0422 30C 19.0659 30 22.8453 28.4433 25.6845 25.6113C 28.0913 23.2107 29.6143 20.041 29.9903 16.6651C 30.0843 15.8399 29.4827 15.0897 28.6554 14.9959Z"/>
<path id="path1_fill" d="M 2.56186 7.1879C 1.97897 6.60649 1.02007 6.60649 0.437186 7.1879C -0.145698 7.7693 -0.145698 8.72581 0.437186 9.30722L 5.70194 14.5586C 6.00279 14.8587 6.37883 14.99 6.77369 14.99C 7.16855 14.99 7.54459 14.84 7.84544 14.5586L 19.8792 2.55538C 20.4621 1.97397 20.4621 1.01747 19.8792 0.436059C 19.2963 -0.145349 18.3373 -0.145349 17.7545 0.436059L 6.75487 11.389L 2.56186 7.1879Z"/>
</defs>
</svg>
